<?xml version="1.0" encoding="UTF-8"?>
<svg version="1.1" xmlns="http://www.w3.org/2000/svg" width="600" height="600">
<path d="M0 0 C198 0 396 0 600 0 C600 198 600 396 600 600 C402 600 204 600 0 600 C0 402 0 204 0 0 Z " fill="#FEFEFE" transform="translate(0,0)"/>
<path d="M0 0 C1.55557617 0.32194336 1.55557617 0.32194336 3.14257812 0.65039062 C36.76247875 7.71699394 68.27279487 19.89068444 97 39 C97.72123047 39.47937012 98.44246094 39.95874023 99.18554688 40.45263672 C109.38278125 47.30122216 118.89355205 54.7577617 128 63 C128.64195312 63.52464844 129.28390625 64.04929687 129.9453125 64.58984375 C131 66 131 66 130.75219727 67.85961914 C128.09309654 75.42610276 119.23459297 81.94838617 113.6875 87.5 C112.87732422 88.32242188 112.06714844 89.14484375 111.23242188 89.9921875 C110.45833984 90.76820312 109.68425781 91.54421875 108.88671875 92.34375 C108.18764404 93.04693359 107.48856934 93.75011719 106.76831055 94.47460938 C105 96 105 96 103 96 C102.73807861 96.58789307 102.47615723 97.17578613 102.20629883 97.78149414 C100.93524192 100.11909667 99.59262044 101.63652604 97.69921875 103.49609375 C97.05146484 104.13740234 96.40371094 104.77871094 95.73632812 105.43945312 C95.06021484 106.09880859 94.38410156 106.75816406 93.6875 107.4375 C93.02298828 108.09298828 92.35847656 108.74847656 91.67382812 109.42382812 C90.42246978 110.65785806 89.16905518 111.88980921 87.9128418 113.11889648 C83.84411008 117.12011893 79.86158932 121.18532183 75.9453125 125.3359375 C74.50263736 126.83752415 73.05615454 128.33532759 71.60791016 129.83154297 C70.61563104 130.86433661 69.63061111 131.90415189 68.65283203 132.95068359 C67.22733212 134.4733442 65.77737116 135.96852723 64.3203125 137.4609375 C63.46711426 138.35603027 62.61391602 139.25112305 61.73486328 140.17333984 C59 142 59 142 55.30029297 141.87719727 C51.79177624 140.94465542 50.48191827 140.13231954 48 137.5625 C34.57945594 124.91013523 17.46442763 116.527427 0 111 C-1.03125 110.649375 -2.0625 110.29875 -3.125 109.9375 C-17.86869391 105.12977372 -32.32478617 103.43234944 -47.75 103.5625 C-48.92455246 103.56756058 -48.92455246 103.56756058 -50.12283325 103.57272339 C-62.76628784 103.65131206 -74.78564937 104.50132994 -87 108 C-87.87108398 108.24669434 -88.74216797 108.49338867 -89.63964844 108.74755859 C-133.03504268 121.40260643 -167.72350184 150.61118556 -189.42822266 190.00170898 C-196.31112584 202.94549059 -201.65182784 216.65005974 -204.59423828 231.02685547 C-204.86508562 232.34393619 -205.14998498 233.65820394 -205.44873047 234.96923828 C-212.31725964 265.30462599 -208.8276718 301.38350622 -195.8125 329.6875 C-195.41812744 330.55109131 -195.02375488 331.41468262 -194.61743164 332.30444336 C-189.07846418 344.30424528 -183.20326609 355.5609109 -175 366 C-174.35933594 366.84433594 -173.71867188 367.68867188 -173.05859375 368.55859375 C-163.11493869 381.2570375 -151.43082042 393.02922561 -138 402 C-137.40783691 402.39880371 -136.81567383 402.79760742 -136.20556641 403.20849609 C-99.08211947 427.99869842 -55.80572319 435.57457692 -12 427 C-11.28312012 426.87141602 -10.56624023 426.74283203 -9.82763672 426.61035156 C15.59340316 421.99261702 41.33555157 409.87035395 60 392 C60.77730469 391.278125 61.55460937 390.55625 62.35546875 389.8125 C75.3287224 377.36620636 83.83685821 362.2848135 91 346 C91.52464844 344.8140625 92.04929687 343.628125 92.58984375 342.40625 C93.83028159 339.40995693 94.86950279 336.49267889 95.75 333.375 C96.01296875 332.47523438 96.2759375 331.57546875 96.546875 330.6484375 C97.23114204 327.60145894 97.23114204 327.60145894 96 323 C25.215 322.505 25.215 322.505 -47 322 C-48.78523435 318.4295313 -49.25027542 317.44825726 -49.26069641 313.78074646 C-49.26778122 312.94658203 -49.27486603 312.1124176 -49.28216553 311.25297546 C-49.27968811 310.34634659 -49.27721069 309.43971771 -49.2746582 308.50561523 C-49.2823246 307.06356216 -49.2823246 307.06356216 -49.29014587 305.59237671 C-49.30404728 302.41438577 -49.30308503 299.23661148 -49.30078125 296.05859375 C-49.30466716 293.85189228 -49.30900161 291.64519156 -49.31376648 289.43849182 C-49.32122935 284.81419448 -49.32093638 280.18997349 -49.31567383 275.56567383 C-49.30987146 269.6313739 -49.32682856 263.69738529 -49.3500185 257.76313686 C-49.36472655 253.20703801 -49.36563167 248.6510147 -49.36250877 244.09489632 C-49.36302321 241.90636642 -49.36828372 239.71783243 -49.37832069 237.52932549 C-49.39061439 234.47433894 -49.38393649 231.41996645 -49.37231445 228.36499023 C-49.37995819 227.45633713 -49.38760193 226.54768402 -49.39547729 225.61149597 C-49.38846298 224.78015137 -49.38144867 223.94880676 -49.3742218 223.0922699 C-49.37447341 222.00912081 -49.37447341 222.00912081 -49.37473011 220.90408993 C-48.87849905 218.38262569 -47.98703538 217.60110811 -46 216 C-44.0278492 215.62395251 -44.0278492 215.62395251 -41.7348938 215.62247658 C-40.85992186 215.61465334 -39.98494991 215.60683009 -39.08346367 215.59876978 C-38.12151148 215.60546195 -37.15955929 215.61215411 -36.16845703 215.61904907 C-35.14712236 215.6143691 -34.1257877 215.60968913 -33.07350349 215.60486734 C-29.6348096 215.59285566 -26.19650969 215.6023988 -22.7578125 215.61181641 C-20.2992123 215.60775346 -17.84061393 215.60241314 -15.38201904 215.59588623 C-9.38756076 215.58359952 -3.39325838 215.58543547 2.6011939 215.59412415 C7.47191131 215.60089246 12.34259712 215.60182113 17.21331787 215.5985527 C17.90588554 215.598093 18.59845321 215.59763331 19.31200778 215.59715968 C20.718836 215.59620052 22.1256642 215.59522789 23.5324924 215.5942419 C36.73206535 215.58568215 49.93157585 215.59553129 63.13113856 215.611643 C74.46310803 215.62504673 85.79498532 215.6227188 97.12695312 215.60888672 C110.27848644 215.59284121 123.42996499 215.58650618 136.58150673 215.59572351 C137.98323185 215.59667918 139.38495699 215.59762229 140.78668213 215.5985527 C141.82126283 215.59924694 141.82126283 215.59924694 142.87674415 215.59995521 C147.74301775 215.60254819 152.60925667 215.59816748 157.4755249 215.59111404 C164.02213374 215.58183385 170.56859498 215.58841734 177.11519623 215.60579681 C179.52309631 215.60977598 181.931011 215.60860335 184.33890533 215.60200882 C187.61562354 215.59385976 190.89177531 215.60403462 194.16845703 215.61904907 C195.61138532 215.60901082 195.61138532 215.60901082 197.08346367 215.59876978 C197.95843561 215.60659303 198.83340755 215.61441627 199.7348938 215.62247658 C200.86990672 215.62320716 200.86990672 215.62320716 202.0278492 215.62395251 C204.55080663 216.10502719 205.43147633 217.00346166 207 219 C207.60009766 221.26147461 207.60009766 221.26147461 207.9140625 223.90234375 C208.03523437 224.87623047 208.15640625 225.85011719 208.28125 226.85351562 C208.3946875 227.87123047 208.508125 228.88894531 208.625 229.9375 C208.74617187 230.92041016 208.86734375 231.90332031 208.9921875 232.91601562 C209.3562848 235.941585 209.68430365 238.96902089 210 242 C210.14791992 243.34553955 210.14791992 243.34553955 210.29882812 244.71826172 C211.26149613 254.54059191 211.24358457 264.38970775 211.25 274.25 C211.25101212 275.65211227 211.25101212 275.65211227 211.25204468 277.08255005 C211.23541785 291.6108243 210.52141316 305.66891185 208 320 C207.82307617 321.0823291 207.64615234 322.1646582 207.46386719 323.27978516 C205.02230211 338.21381405 201.89933654 352.67564324 197 367 C196.60192139 368.17369141 196.60192139 368.17369141 196.19580078 369.37109375 C181.66617391 411.68331258 157.87344028 450.45010993 123 479 C122.51192871 479.4125 122.02385742 479.825 121.52099609 480.25 C101.34332263 497.28655807 78.74037325 509.79824965 54.12866211 519.16064453 C52.29789935 519.88253493 50.50178466 520.69120993 48.71484375 521.515625 C43.42662093 523.80617223 37.76669651 525.00361798 32.1875 526.375 C30.95572021 526.67881592 29.72394043 526.98263184 28.45483398 527.2956543 C2.09409558 533.68924891 -23.10847468 537.14395287 -50.1875 537.25 C-51.03250061 537.2554483 -51.87750122 537.26089661 -52.74810791 537.26651001 C-68.05164983 537.33988646 -83.12349902 536.33949092 -98.125 533.125 C-99.37543091 532.86348145 -99.37543091 532.86348145 -100.65112305 532.59667969 C-103.10358179 532.07662444 -105.5520431 531.54079786 -108 531 C-109.02359619 530.78005371 -109.02359619 530.78005371 -110.06787109 530.55566406 C-167.25364585 518.11585473 -224.58584324 481.8526709 -260 435 C-260.43119141 434.43458496 -260.86238281 433.86916992 -261.30664062 433.28662109 C-286.27003192 400.44143178 -303.72864642 362.81667048 -312.453125 322.51269531 C-313.00199709 319.9908241 -313.57712659 317.47601568 -314.15625 314.9609375 C-314.52211945 313.3284127 -314.88675449 311.69561064 -315.25 310.0625 C-315.41338867 309.35440186 -315.57677734 308.64630371 -315.74511719 307.91674805 C-318.44203345 295.36516176 -318.20724123 282.3436778 -318.1875 269.5625 C-318.18656342 268.77353333 -318.18562683 267.98456665 -318.18466187 267.17169189 C-318.09506541 232.18317103 -312.53582817 198.45939874 -299 166 C-298.59914185 165.02377686 -298.59914185 165.02377686 -298.19018555 164.02783203 C-288.47049927 140.55705187 -275.77065633 118.89774991 -260 99 C-259.54995605 98.4313623 -259.09991211 97.86272461 -258.63623047 97.27685547 C-252.07813341 89.09792677 -244.81858845 81.6232102 -237.4375 74.1875 C-236.57519775 73.31585205 -235.71289551 72.4442041 -234.82446289 71.54614258 C-228.8592326 65.61028374 -222.59887502 60.21794257 -216 55 C-215.39148193 54.51184814 -214.78296387 54.02369629 -214.15600586 53.52075195 C-156.40707506 7.38541829 -73.1264827 -15.5879189 0 0 Z " fill="#45AC43" transform="translate(353,33)"/>
<path d="M0 0 C1.55557617 0.32194336 1.55557617 0.32194336 3.14257812 0.65039062 C36.76247875 7.71699394 68.27279487 19.89068444 97 39 C97.72123047 39.47937012 98.44246094 39.95874023 99.18554688 40.45263672 C109.38278125 47.30122216 118.89355205 54.7577617 128 63 C128.64195312 63.52464844 129.28390625 64.04929687 129.9453125 64.58984375 C131 66 131 66 130.75219727 67.85961914 C128.09309654 75.42610276 119.23459297 81.94838617 113.6875 87.5 C112.87732422 88.32242188 112.06714844 89.14484375 111.23242188 89.9921875 C110.45833984 90.76820312 109.68425781 91.54421875 108.88671875 92.34375 C108.18764404 93.04693359 107.48856934 93.75011719 106.76831055 94.47460938 C105 96 105 96 103 96 C102.73807861 96.58789307 102.47615723 97.17578613 102.20629883 97.78149414 C100.93524192 100.11909667 99.59262044 101.63652604 97.69921875 103.49609375 C97.05146484 104.13740234 96.40371094 104.77871094 95.73632812 105.43945312 C95.06021484 106.09880859 94.38410156 106.75816406 93.6875 107.4375 C93.02298828 108.09298828 92.35847656 108.74847656 91.67382812 109.42382812 C90.42246978 110.65785806 89.16905518 111.88980921 87.9128418 113.11889648 C83.84411008 117.12011893 79.86158932 121.18532183 75.9453125 125.3359375 C74.50263736 126.83752415 73.05615454 128.33532759 71.60791016 129.83154297 C70.61563104 130.86433661 69.63061111 131.90415189 68.65283203 132.95068359 C67.22733212 134.4733442 65.77737116 135.96852723 64.3203125 137.4609375 C63.46711426 138.35603027 62.61391602 139.25112305 61.73486328 140.17333984 C59 142 59 142 55.30029297 141.87719727 C51.79177624 140.94465542 50.48191827 140.13231954 48 137.5625 C34.57945594 124.91013523 17.46442763 116.527427 0 111 C-1.03125 110.649375 -2.0625 110.29875 -3.125 109.9375 C-17.86869391 105.12977372 -32.32478617 103.43234944 -47.75 103.5625 C-48.92455246 103.56756058 -48.92455246 103.56756058 -50.12283325 103.57272339 C-62.76628784 103.65131206 -74.78564937 104.50132994 -87 108 C-87.87108398 108.24669434 -88.74216797 108.49338867 -89.63964844 108.74755859 C-133.03504268 121.40260643 -167.72350184 150.61118556 -189.42822266 190.00170898 C-196.31112584 202.94549059 -201.65182784 216.65005974 -204.59423828 231.02685547 C-204.86508562 232.34393619 -205.14998498 233.65820394 -205.44873047 234.96923828 C-211.12411658 260.03501783 -207.9666393 285.15532438 -203 310 C-202.79858398 311.01658691 -202.59716797 312.03317383 -202.38964844 313.08056641 C-201.93052987 315.38790035 -201.46767127 317.69438726 -201 320 C-201.98097656 320.72703125 -202.96195312 321.4540625 -203.97265625 322.203125 C-211.61324821 327.88750392 -219.15533418 333.66510399 -226.56933594 339.64208984 C-230.96412569 343.18214489 -235.4048738 346.65008876 -239.88671875 350.07958984 C-244.50457723 353.61392069 -249.09874998 357.17796917 -253.6875 360.75 C-254.44111816 361.33628174 -255.19473633 361.92256348 -255.97119141 362.52661133 C-259.95246009 365.62469644 -263.93083623 368.72643675 -267.90625 371.83203125 C-269.10761597 372.76934082 -269.10761597 372.76934082 -270.33325195 373.72558594 C-271.85615927 374.91384215 -273.37819195 376.10322053 -274.89916992 377.29394531 C-287.34530081 387 -287.34530081 387 -290 387 C-301.90568971 363.12529245 -309.18928075 338.4492517 -314.8125 312.4375 C-315.01963623 311.49922363 -315.22677246 310.56094727 -315.44018555 309.59423828 C-318.18538918 296.3945866 -318.20823593 282.98768844 -318.1875 269.5625 C-318.18656342 268.77353333 -318.18562683 267.98456665 -318.18466187 267.17169189 C-318.09506541 232.18317103 -312.53582817 198.45939874 -299 166 C-298.59914185 165.02377686 -298.59914185 165.02377686 -298.19018555 164.02783203 C-288.47049927 140.55705187 -275.77065633 118.89774991 -260 99 C-259.54995605 98.4313623 -259.09991211 97.86272461 -258.63623047 97.27685547 C-252.07813341 89.09792677 -244.81858845 81.6232102 -237.4375 74.1875 C-236.57519775 73.31585205 -235.71289551 72.4442041 -234.82446289 71.54614258 C-228.8592326 65.61028374 -222.59887502 60.21794257 -216 55 C-215.39148193 54.51184814 -214.78296387 54.02369629 -214.15600586 53.52075195 C-156.40707506 7.38541829 -73.1264827 -15.5879189 0 0 Z " fill="#D7282A" transform="translate(353,33)"/>
<path d="M0 0 C0.87497194 -0.00782324 1.74994389 -0.01564648 2.65143013 -0.02370679 C3.61338232 -0.01701463 4.57533451 -0.01032246 5.56643677 -0.00342751 C6.58777143 -0.00810748 7.6091061 -0.01278745 8.6613903 -0.01760924 C12.1000842 -0.02962092 15.53838411 -0.02007778 18.9770813 -0.01066017 C21.4356815 -0.01472312 23.89427987 -0.02006344 26.35287476 -0.02659035 C32.34733304 -0.03887706 38.34163542 -0.03704111 44.3360877 -0.02835242 C49.20680511 -0.02158412 54.07749092 -0.02065545 58.94821167 -0.02392387 C59.64077934 -0.02438357 60.33334701 -0.02484327 61.04690158 -0.0253169 C62.4537298 -0.02627605 63.860558 -0.02724869 65.2673862 -0.02823468 C78.46695915 -0.03679442 91.66646965 -0.02694529 104.86603236 -0.01083358 C116.19800183 0.00257015 127.52987912 0.00024222 138.86184692 -0.01358986 C152.01338024 -0.02963537 165.16485879 -0.0359704 178.31640053 -0.02675307 C179.71812565 -0.0257974 181.11985079 -0.02485428 182.52157593 -0.02392387 C183.55615663 -0.02322963 183.55615663 -0.02322963 184.61163795 -0.02252137 C189.47791155 -0.01992838 194.34415047 -0.0243091 199.2104187 -0.03136253 C205.75702754 -0.04064273 212.30348878 -0.03405923 218.85009003 -0.01667976 C221.25799011 -0.0127006 223.6659048 -0.01387323 226.07379913 -0.02046776 C229.35051734 -0.02861682 232.62666911 -0.01844196 235.90335083 -0.00342751 C237.34627912 -0.01346575 237.34627912 -0.01346575 238.81835747 -0.02370679 C239.69332941 -0.01588355 240.56830135 -0.00806031 241.4697876 0 C242.60480052 0.00073059 242.60480052 0.00073059 243.762743 0.00147593 C246.28570043 0.48255061 247.16637013 1.38098508 248.7348938 3.37752342 C249.33499146 5.63899803 249.33499146 5.63899803 249.6489563 8.27986717 C249.77012817 9.25375389 249.89130005 10.22764061 250.0161438 11.23103905 C250.1295813 12.24875389 250.2430188 13.26646873 250.3598938 14.31502342 C250.48106567 15.29793358 250.60223755 16.28084373 250.7270813 17.29353905 C251.09117859 20.31910842 251.41919745 23.34654431 251.7348938 26.37752342 C251.83350708 27.27454979 251.93212036 28.17157616 252.03372192 29.09578514 C252.99638993 38.91811533 252.97847837 48.76723117 252.9848938 58.62752342 C252.98556854 59.56226494 252.98624329 60.49700645 252.98693848 61.46007347 C252.97031165 75.98834772 252.25630696 90.04643527 249.7348938 104.37752342 C249.55796997 105.45985252 249.38104614 106.54218163 249.19876099 107.65730858 C246.75719591 122.59133747 243.63423034 137.05316667 238.7348938 151.37752342 C238.46950806 152.15998436 238.20412231 152.9424453 237.93069458 153.74861717 C224.2449776 193.60325742 202.82653666 227.08017774 172.7348938 256.37752342 C172.4048938 255.71752342 172.0748938 255.05752342 171.7348938 254.37752342 C170.41579595 253.68311498 169.08026687 253.0195464 167.7348938 252.37752342 C166.59389589 251.60671741 165.47273813 250.80585105 164.37161255 249.97908592 C163.73973022 249.50583885 163.1078479 249.03259178 162.45681763 248.54500389 C161.78545776 248.03598534 161.1140979 247.52696678 160.4223938 247.00252342 C159.71816284 246.47159081 159.01393188 245.94065819 158.2883606 245.3936367 C152.84271028 241.2669831 147.49210228 237.02992061 142.17337036 232.74153709 C138.21080972 229.54819783 134.21458288 226.40690467 130.1723938 223.31502342 C125.19605511 219.50860864 120.25425168 215.66176131 115.33865356 211.77718163 C111.90968383 209.07149907 108.45991025 206.39618585 104.98880005 203.74471092 C104.1795105 203.12370506 103.37022095 202.5026992 102.53640747 201.86287498 C100.95308474 200.64897829 99.36615812 199.43976369 97.775177 198.23592186 C93.88497895 195.24578182 90.59975127 192.42470302 87.7348938 188.37752342 C88.6527063 187.60408592 89.5705188 186.83064842 90.5161438 186.03377342 C109.39671353 170.04681705 122.74431045 153.09029266 132.7348938 130.37752342 C133.25954224 129.19158592 133.78419067 128.00564842 134.32473755 126.78377342 C135.56517539 123.78748035 136.60439659 120.87020231 137.4848938 117.75252342 C137.74786255 116.8527578 138.0108313 115.95299217 138.2817688 115.02596092 C138.96603584 111.97898236 138.96603584 111.97898236 137.7348938 107.37752342 C66.9498938 106.88252342 66.9498938 106.88252342 -5.2651062 106.37752342 C-7.05034055 102.80705472 -7.51538162 101.82578068 -7.52580261 98.15826988 C-7.53288742 97.32410545 -7.53997223 96.48994102 -7.54727173 95.63049889 C-7.54479431 94.72387001 -7.54231689 93.81724113 -7.5397644 92.88313866 C-7.54487534 91.92176994 -7.54998627 90.96040123 -7.55525208 89.96990013 C-7.56915348 86.79190919 -7.56819123 83.6141349 -7.56588745 80.43611717 C-7.56977336 78.22941571 -7.57410781 76.02271499 -7.57887268 73.81601524 C-7.58633555 69.1917179 -7.58604258 64.56749691 -7.58078003 59.94319725 C-7.57497766 54.00889732 -7.59193476 48.07490871 -7.6151247 42.14066029 C-7.62983275 37.58456143 -7.63073787 33.02853813 -7.62761497 28.47241974 C-7.62812941 26.28388984 -7.63338992 24.09535585 -7.6434269 21.90684891 C-7.65572059 18.85186237 -7.64904269 15.79748987 -7.63742065 12.74251366 C-7.64506439 11.83386055 -7.65270813 10.92520744 -7.6605835 9.98901939 C-7.65356918 9.15767479 -7.64655487 8.32633018 -7.639328 7.46979332 C-7.63949574 6.74769393 -7.63966349 6.02559454 -7.63983631 5.28161335 C-6.80211058 1.02493611 -4.00187138 0.00257593 0 0 Z " fill="#5D7FBE" transform="translate(311.2651062011719,248.6224765777588)"/>
<path d="M0 0 C0.42047607 0.36931641 0.84095215 0.73863281 1.27416992 1.11914062 C5.48708613 4.78022005 9.82114774 8.1895022 14.3125 11.5 C22.61653695 17.67341522 30.77665201 24.02268677 38.93261719 30.38964844 C43.93481586 34.28602331 48.97000814 38.13962505 54 42 C55.62197615 43.24698989 57.24357873 44.49446352 58.86499023 45.7421875 C59.94879881 46.5759611 61.03294224 47.40929964 62.11743164 48.2421875 C64.88216496 50.36614389 67.64100925 52.49712432 70.390625 54.640625 C76.4374953 59.34364932 82.52910907 63.88672049 89 68 C88.75765625 68.7321875 88.5153125 69.464375 88.265625 70.21875 C78.45795447 101.90507017 79.57722316 132.87127117 86 165 C86.20141602 166.01658691 86.40283203 167.03317383 86.61035156 168.08056641 C87.06947013 170.38790035 87.53232873 172.69438726 88 175 C87.01902344 175.72703125 86.03804688 176.4540625 85.02734375 177.203125 C77.38675179 182.88750392 69.84466582 188.66510399 62.43066406 194.64208984 C58.03587431 198.18214489 53.5951262 201.65008876 49.11328125 205.07958984 C44.49542277 208.61392069 39.90125002 212.17796917 35.3125 215.75 C34.55888184 216.33628174 33.80526367 216.92256348 33.02880859 217.52661133 C29.04753991 220.62469644 25.06916377 223.72643675 21.09375 226.83203125 C19.89238403 227.76934082 19.89238403 227.76934082 18.66674805 228.72558594 C17.14384073 229.91384215 15.62180805 231.10322053 14.10083008 232.29394531 C1.65469919 242 1.65469919 242 -1 242 C-12.90568971 218.12529245 -20.18928075 193.4492517 -25.8125 167.4375 C-26.01963623 166.49922363 -26.22677246 165.56094727 -26.44018555 164.59423828 C-29.18538918 151.3945866 -29.20823593 137.98768844 -29.1875 124.5625 C-29.18656342 123.77353333 -29.18562683 122.98456665 -29.18466187 122.17169189 C-29.08648671 83.83308469 -21.81451622 47.89913939 -6.4375 12.6875 C-6.14681641 12.01138672 -5.85613281 11.33527344 -5.55664062 10.63867188 C-3.93405463 6.91797691 -2.18576749 3.43477748 0 0 Z " fill="#F3C300" transform="translate(64,178)"/>
</svg>
