<?xml version="1.0" encoding="UTF-8"?>
<svg version="1.1" xmlns="http://www.w3.org/2000/svg" width="600" height="600">
<path d="M0 0 C198 0 396 0 600 0 C600 198 600 396 600 600 C402 600 204 600 0 600 C0 402 0 204 0 0 Z " fill="#FEFEFE" transform="translate(0,0)"/>
<path d="M0 0 C4.68506904 -0.00030242 9.3700629 -0.00875216 14.05511737 -0.02069908 C48.83584849 -0.10789359 83.49807474 0.42250193 118.23602557 2.18511146 C119.69285831 2.25753332 121.14969592 2.32985719 122.60653949 2.40206093 C130.23591254 2.78582261 137.86138221 3.21735777 145.48602557 3.68511146 C147.68303902 3.81765027 149.88006071 3.95005265 152.07709002 4.08232826 C155.2976327 4.27679349 158.51811028 4.47211912 161.7384212 4.67038673 C167.30815707 5.01295499 172.87772976 5.32927699 178.45086932 5.61089271 C194.21429745 6.45351725 209.82164084 8.21045384 225.48602557 10.12261146 C226.53269397 10.25003731 227.57936236 10.37746315 228.65774798 10.50875038 C238.93450622 11.76982945 249.20215037 13.09846599 259.43133807 14.70464271 C260.52409045 14.86693619 260.52409045 14.86693619 261.63891864 15.03250831 C266.35282322 15.80657536 269.8107976 17.04759999 273.33758807 20.29448646 C274.81964359 23.41324678 274.59567689 25.77194995 274.23602557 29.18511146 C273.18964854 31.94529241 271.74642147 34.40459757 270.23602557 36.93511146 C269.58029559 38.07436073 269.58029559 38.07436073 268.91131854 39.23662513 C267.37122649 41.89728502 265.80559853 44.54173975 264.23602557 47.18511146 C263.62533221 48.21910072 263.01463885 49.25308998 262.38543963 50.31841224 C260.38015187 53.71317101 258.37114044 57.10571013 256.36102557 60.49761146 C256.02104541 61.07164711 255.68106524 61.64568275 255.33078265 62.23711342 C251.74777494 68.28617903 248.15235374 74.32654135 244.50555682 80.33745521 C243.39412036 82.2028884 242.28339977 84.06874836 241.17352557 85.93511146 C240.39549579 87.19255165 240.39549579 87.19255165 239.60174823 88.47539467 C238.90831317 89.65428261 238.90831317 89.65428261 238.20086932 90.85698646 C237.59166644 91.86390541 237.59166644 91.86390541 236.97015643 92.89116615 C235.31262723 98.0704626 237.58595887 103.72734245 239.2614162 108.69951576 C239.88711505 110.57131759 239.88711505 110.57131759 240.52545428 112.48093361 C240.98097897 113.82376043 241.43658808 115.16655863 241.89227557 116.50933021 C242.35984645 117.90202718 242.82683742 119.29491896 243.29327655 120.68799537 C244.51737315 124.33943831 245.74840129 127.98850431 246.98120379 131.63701576 C248.95599324 137.48585442 250.91948601 143.33849858 252.88426471 149.19070572 C253.56985088 151.22981168 254.25797501 153.2680464 254.94659686 155.30612892 C255.36372943 156.54454033 255.780862 157.78295173 256.21063495 159.05889076 C256.57846087 160.14808311 256.9462868 161.23727546 257.32525897 162.35947365 C259.02654631 167.63768855 260.23385182 172.63285054 259.23602557 178.18511146 C256.3315703 181.9303301 256.3315703 181.9303301 253.23602557 183.18511146 C246.19958789 183.92814783 238.93566991 182.88332145 231.93524432 182.12651771 C230.89584201 182.01790916 229.8564397 181.90930061 228.78554034 181.79740089 C226.60626127 181.56864833 224.42724085 181.33741909 222.24847674 181.10381263 C218.91613942 180.74682019 215.5830248 180.39796041 212.24969745 180.05034584 C210.1239964 179.82621025 207.99834355 179.60161694 205.87274432 179.37651771 C204.38359767 179.2202063 204.38359767 179.2202063 202.86436725 179.06073707 C201.93602572 178.96070884 201.0076842 178.86068062 200.05121112 178.75762123 C199.23976138 178.67101738 198.42831164 178.58441353 197.59227252 178.49518532 C195.95946994 178.28031421 194.33431507 178.00140761 192.72058368 177.67264503 C190.34613515 177.20671777 188.08077896 176.96386995 185.66791034 176.81206459 C184.79252109 176.75530555 183.91713183 176.69854652 183.01521564 176.64006752 C182.07874698 176.58274452 181.14227832 176.52542152 180.17743182 176.46636146 C179.19669192 176.40355995 178.21595202 176.34075844 177.20549273 176.27605385 C174.07002877 176.07590362 170.93429828 175.88035905 167.79852557 175.68511146 C164.70341229 175.489417 161.60836077 175.29277143 158.51332355 175.09587806 C156.50196495 174.96813602 154.49056149 174.84109851 152.47911334 174.71477455 C147.225776 174.38338123 141.97670895 174.0230053 136.72821307 173.62261146 C129.42442609 173.08970532 122.11796192 172.88204697 114.79852557 172.68511146 C112.1955875 172.61486726 109.59272002 172.54195571 106.98993182 172.46636146 C105.85886004 172.43606849 104.72778827 172.40577553 103.56244159 172.37456459 C99.82427562 172.24210647 96.10250995 171.95740586 92.37236285 171.68234962 C84.8210874 171.1591451 77.29798714 171.03710978 69.72821307 171.03984779 C68.3472765 171.03684329 66.96634076 171.03343788 65.58540606 171.02967018 C61.86990539 171.02092846 58.15442785 171.01849544 54.43891788 171.01785439 C52.08573182 171.01713498 49.7325513 171.01498358 47.37936664 171.01235718 C39.07490946 171.00311588 30.77046818 170.99901826 22.46600604 170.99980873 C15.71760902 171.00033537 8.96927087 170.99342838 2.22088885 170.97930092 C-30.38956569 170.91265139 -62.98324013 170.87344494 -95.57647443 172.07183021 C-97.20107083 172.13025061 -97.20107083 172.13025061 -98.85848737 172.18985122 C-112.1121525 172.68284731 -125.30249096 173.55538401 -138.5128758 174.73181862 C-145.75436431 175.37381434 -153.00556211 175.78245034 -160.26397443 176.18511146 C-178.41863847 177.23897002 -196.50391715 178.64165765 -214.57647443 180.68511146 C-215.63213605 180.80362465 -216.68779767 180.92213783 -217.77544904 181.04424232 C-223.68657634 181.73654498 -229.52023033 182.62141067 -235.36504865 183.7454142 C-239.16702454 184.44227544 -241.88939649 184.77614878 -245.76397443 184.18511146 C-248.45623125 182.23654014 -250.35921014 180.20216205 -251.76397443 177.18511146 C-252.48429565 170.3117551 -250.17274493 164.48476544 -247.96709943 158.04058021 C-247.57705731 156.87561516 -247.1870152 155.7106501 -246.78515363 154.51038307 C-245.95941947 152.05029506 -245.12867716 149.59188313 -244.2932713 147.13506263 C-243.0230562 143.39932122 -241.7671322 139.65902699 -240.51397443 135.91753334 C-239.70751585 133.52076849 -238.90025016 131.12427503 -238.09209943 128.72808021 C-237.5324751 127.06666244 -237.5324751 127.06666244 -236.96154523 125.37168068 C-235.0005402 119.61089246 -232.89614426 113.9477974 -230.6088841 108.30924171 C-228.49273417 102.98917231 -226.78009667 98.05219275 -228.70147443 92.45317787 C-230.23935205 89.51271825 -231.94215894 86.77099293 -233.76397443 83.99761146 C-235.07087135 81.89140336 -236.37683388 79.78461523 -237.68194318 77.67729896 C-238.35918439 76.60705482 -239.0364256 75.53681068 -239.73418927 74.4341349 C-242.97939773 69.23961552 -246.01964368 63.92938094 -249.07647443 58.62261146 C-253.73313212 50.57647635 -253.73313212 50.57647635 -258.60772443 42.66167396 C-266.44193114 30.3036569 -266.44193114 30.3036569 -265.76397443 23.18511146 C-263.10052292 19.05002527 -261.80712419 17.55334781 -257.12334943 15.89995521 C-255.59218739 15.61118644 -254.05470342 15.35498776 -252.51397443 15.12261146 C-251.62033185 14.97179115 -250.72668927 14.82097084 -249.80596662 14.66558021 C-246.46385857 14.12789433 -243.11685355 13.65103447 -239.76397443 13.18511146 C-238.74956281 13.04265999 -238.74956281 13.04265999 -237.71465802 12.8973307 C-199.03672957 7.4914797 -160.11855016 4.63395019 -121.13897443 2.49761146 C-120.04922315 2.43676368 -118.95947186 2.37591591 -117.83669782 2.31322426 C-78.57818073 0.15224589 -39.30804852 -0.00372729 0 0 Z " fill="#F69020" transform="translate(295.7639744281769,202.81488853693008)"/>
<path d="M0 0 C3.91418062 0.00459297 7.82804763 -0.00215822 11.7421875 -0.02050781 C46.00628019 -0.17961701 80.25176879 0.84446185 114.19238281 5.90649414 C117.42145349 6.36976434 120.65504958 6.77906696 123.89208984 7.18286133 C213.26406816 18.41287916 213.26406816 18.41287916 227.29443359 33.56567383 C233.32134602 41.35824925 234.62888782 48.46144603 234.49853516 58.16943359 C234.49911926 59.32166916 234.49970337 60.47390472 234.50030518 61.66105652 C234.49753385 65.44337821 234.46648523 69.22489722 234.43505859 73.00708008 C234.42759286 75.63980173 234.4219015 78.27252897 234.41790771 80.90525818 C234.40551926 87.10997254 234.37275442 93.314402 234.33250976 99.51899141 C234.28766255 106.58794906 234.26577262 113.65692095 234.24572802 120.72598565 C234.2040175 135.25602807 234.13374672 149.78584695 234.04443359 164.31567383 C230.60661328 164.17683964 227.16927331 164.02840329 223.73193359 163.87817383 C222.75546875 163.83885742 221.77900391 163.79954102 220.77294922 163.7590332 C219.83515625 163.71713867 218.89736328 163.67524414 217.93115234 163.63208008 C216.63504028 163.57709351 216.63504028 163.57709351 215.31274414 163.52099609 C213.04443359 163.31567383 213.04443359 163.31567383 210.04443359 162.31567383 C207.24962027 162.1107588 204.46770406 161.94329765 201.66943359 161.81567383 C200.16145883 161.74619376 198.65363427 161.67336003 197.14599609 161.59692383 C196.47906738 161.56663086 195.81213867 161.53633789 195.125 161.50512695 C193.04443359 161.31567383 193.04443359 161.31567383 190.90460205 160.83862305 C187.34789536 160.18831975 183.80434515 159.96574188 180.20117188 159.7590332 C179.0358342 159.68807182 179.0358342 159.68807182 177.84695435 159.61567688 C175.26975941 159.45986514 172.69228854 159.30936993 170.11474609 159.15942383 C168.2871734 159.05126869 166.45960803 158.9429899 164.63204956 158.83459473 C160.77697623 158.60689097 156.92174797 158.3820468 153.06640625 158.15893555 C149.19568049 157.93461393 145.32526329 157.70587322 141.45507812 157.47241211 C96.47196745 154.76082553 51.61260601 154.1264584 6.55545557 154.13056123 C1.70686811 154.13026152 -3.14166338 154.1220962 -7.99023438 154.10986328 C-36.14188663 154.04055211 -64.27297059 154.11079117 -92.40869141 155.20239258 C-93.44773369 155.24133951 -94.48677597 155.28028645 -95.55730438 155.32041359 C-106.59119045 155.74688346 -117.49544681 156.44394144 -128.4458313 157.88717651 C-133.49022947 158.50303811 -138.50460839 158.6490095 -143.58056641 158.75317383 C-155.06766451 159.09726145 -166.49944287 159.86779217 -177.95556641 160.75317383 C-178.76697083 160.81479706 -179.57837524 160.87642029 -180.41436768 160.93991089 C-189.2957063 161.61817003 -198.16186588 162.39622392 -207.01806641 163.35083008 C-208.17072998 163.47221596 -208.17072998 163.47221596 -209.34667969 163.59605408 C-213.27651486 163.98694998 -213.27651486 163.98694998 -216.95556641 165.31567383 C-219.28855301 165.35589774 -221.62263306 165.3588763 -223.95556641 165.31567383 C-224.09615954 150.1377917 -224.20174348 134.95993972 -224.26643944 119.78155136 C-224.29728684 112.73280732 -224.33929029 105.6844695 -224.40820312 98.63598633 C-224.47473402 91.82784454 -224.50931985 85.02012411 -224.52482986 78.21167755 C-224.53587637 75.62023548 -224.55744753 73.02881523 -224.58994675 70.43755341 C-224.6338005 66.79454093 -224.63948801 63.15324567 -224.63671875 59.51000977 C-224.65829041 58.44976593 -224.67986206 57.38952209 -224.7020874 56.29714966 C-224.61954709 46.19608968 -220.91656574 37.91003389 -213.70556641 30.81567383 C-206.25616147 24.23247877 -195.82285397 22.33752101 -186.39306641 20.25317383 C-185.25498535 19.99568359 -184.1169043 19.73819336 -182.94433594 19.47290039 C-175.17642472 17.73986435 -167.39872178 16.21993387 -159.54150391 14.95629883 C-156.97934919 14.49857184 -154.5505186 13.980217 -152.04150391 13.32739258 C-147.79765711 12.23442021 -143.53641356 11.5298144 -139.20556641 10.87817383 C-138.38121094 10.7518457 -137.55685547 10.62551758 -136.70751953 10.49536133 C-134.97858477 10.2309822 -133.24941442 9.96813948 -131.52001953 9.70678711 C-129.08530954 9.33546139 -126.65314276 8.95069725 -124.22119141 8.56176758 C-106.1044416 5.69994918 -87.83455662 3.33254362 -69.49368286 2.67115784 C-65.40753647 2.51668715 -61.35585525 2.28501806 -57.28979492 1.84643555 C-38.22985708 -0.1772211 -19.14387182 -0.02444917 0 0 Z " fill="#5D707B" transform="translate(294.95556640625,35.684326171875)"/>
<path d="M0 0 C0 47.85 0 95.7 0 145 C6.93 143.02 6.93 143.02 14 141 C17.49809723 140.13053075 20.98427588 139.28602908 24.5 138.5 C25.42868896 138.29133301 26.35737793 138.08266602 27.31420898 137.86767578 C43.54896676 134.27938575 59.89707304 131.62282594 76.36523438 129.37597656 C79.343824 128.9509369 82.31356349 128.47922412 85.28515625 128.0078125 C91.96381916 126.97341337 98.6539647 126.20010784 105.375 125.5 C107.19257813 125.30881592 107.19257813 125.30881592 109.046875 125.11376953 C116.69347648 124.31925237 124.34292717 123.56154206 132 122.875 C133.23049072 122.76188477 133.23049072 122.76188477 134.48583984 122.64648438 C150.56571268 121.25991154 166.67241537 120.83520548 182.8046875 120.796875 C184.64661177 120.78985166 186.4885358 120.78276485 188.33045959 120.77561951 C194.17864334 120.75623745 200.02678737 120.751186 205.875 120.75 C206.87108906 120.74955814 207.86717812 120.74911629 208.89345169 120.74866104 C238.68309714 120.74173035 268.34207873 120.88108721 298 124 C298.90099426 124.09428284 299.80198853 124.18856567 300.73028564 124.28570557 C313.14840009 125.59907484 325.53675627 127.10769463 337.91784668 128.73046875 C340.83127467 129.10760711 343.74753936 129.46020529 346.6640625 129.8125 C359.94308323 131.45480595 372.94124222 134.11301902 386 137 C388.47133347 137.54045922 390.94268836 138.08082053 393.4140625 138.62109375 C398.15874366 139.66392512 402.90301835 140.70847427 407.64453125 141.765625 C408.60721924 141.97993164 409.56990723 142.19423828 410.56176758 142.41503906 C413 143 413 143 416 144 C416 96.48 416 48.96 416 0 C428.375 1.125 428.375 1.125 432.6875 1.5625 C433.51636719 1.64628906 434.34523438 1.73007812 435.19921875 1.81640625 C435.79347656 1.87699219 436.38773438 1.93757813 437 2 C437.09351907 21.02820901 437.16401629 40.05637126 437.20724869 59.08476257 C437.22785748 67.92035615 437.25594581 76.75580678 437.30175781 85.59130859 C437.34167722 93.2940226 437.36744505 100.99663305 437.37635398 108.69944763 C437.38156012 112.77654849 437.39376106 116.85335314 437.42292023 120.93035889 C437.4501702 124.77172449 437.45842582 128.61267327 437.45243073 132.45412636 C437.4535267 133.8601642 437.46142372 135.26621669 437.4768219 136.67217064 C437.56920502 145.54633113 437.25313403 152.07131224 431.25390625 159.0234375 C430.69574219 159.46945312 430.13757813 159.91546875 429.5625 160.375 C429.00691406 160.83648438 428.45132812 161.29796875 427.87890625 161.7734375 C421.40971637 165.99656769 414.51144541 165.76435469 407.109375 164.51025391 C404.05625487 163.83422046 401.0295516 163.08721836 398 162.3125 C385.37492814 159.23509288 372.68757822 156.80775352 359.8972168 154.53149414 C357.21080375 154.03867193 354.53771956 153.50281207 351.86328125 152.94921875 C346.82955639 151.93119598 341.78083238 151.21008863 336.6875 150.5625 C335.70458984 150.43689697 334.72167969 150.31129395 333.70898438 150.18188477 C311.84190978 147.44168827 289.96995695 145.48493386 267.97250366 144.23344421 C265.3836068 144.08130767 262.79525743 143.91944598 260.20767212 143.74642944 C249.62444067 143.04714227 239.08087964 142.82338704 228.4765625 142.796875 C226.73444086 142.78985532 224.99231948 142.78276848 223.25019836 142.77561951 C217.70846186 142.75619996 212.16676709 142.75118515 206.625 142.75 C205.68141254 142.74955814 204.73782509 142.74911629 203.76564407 142.74866104 C176.56210955 142.74197662 149.48420392 142.86461998 122.40441895 145.74676514 C119.85620182 146.01514491 117.3067864 146.2686661 114.75683594 146.52001953 C81.26025423 149.85259242 47.79099073 154.47896494 15.30786133 163.51098633 C-2.47381506 168.32345291 -2.47381506 168.32345291 -10.375 163.875 C-15.42998118 160.20806693 -19.03697411 156.01053998 -21 150 C-21.24609566 147.07339001 -21.24609566 147.07339001 -21.24050903 143.78007507 C-21.24325836 142.52790695 -21.24600769 141.27573883 -21.24884033 139.98562622 C-21.241763 138.60589503 -21.23449339 137.22616482 -21.22705078 135.84643555 C-21.22648639 134.38758858 -21.22680378 132.92874105 -21.22793579 131.46989441 C-21.2285092 127.51572123 -21.21675679 123.56166959 -21.20278788 119.60752463 C-21.19027858 115.47287854 -21.18910986 111.3382296 -21.18673706 107.2035675 C-21.18052288 99.3767784 -21.16411289 91.55004522 -21.14403808 83.72328073 C-21.12167717 74.81161305 -21.11068516 65.8999427 -21.10064721 56.98825395 C-21.07974662 38.65880427 -21.04457183 20.32940663 -21 2 C-18.25032342 1.663795 -15.50031189 1.33093184 -12.75 1 C-11.97269531 0.90460938 -11.19539063 0.80921875 -10.39453125 0.7109375 C-9.64042969 0.62070312 -8.88632813 0.53046875 -8.109375 0.4375 C-7.07248535 0.31181641 -7.07248535 0.31181641 -6.01464844 0.18359375 C-4.01710903 0.00155914 -2.00581661 0 0 0 Z " fill="#5F717C" transform="translate(92,398)"/>
<path d="M0 0 C5.10451702 -0.09958538 10.20845677 -0.17180331 15.3137207 -0.21972656 C17.04689395 -0.2397241 18.78000075 -0.26693148 20.51293945 -0.30175781 C40.48593491 -0.69282136 40.48593491 -0.69282136 48.9375 6.5 C53.67124687 12.237875 53.6480027 17.88374072 53.44921875 25.0546875 C52.83825205 30.42056897 51.18382557 33.60982753 47 37 C44.125 38.5 44.125 38.5 42 39 C45.20981972 45.73985899 49.03878073 51.80947327 53.19726562 57.99609375 C53.90979492 59.07310547 53.90979492 59.07310547 54.63671875 60.171875 C55.28193481 61.1323877 55.28193481 61.1323877 55.94018555 62.11230469 C57.03912832 64.06969366 57.56131451 65.80748457 58 68 C51.66505579 69.32451843 45.15027191 70.56635286 39 68 C32.91485631 62.00703461 29.44625314 53.70092797 26 46 C25.67 45.34 25.34 44.68 25 44 C21.535 43.505 21.535 43.505 18 43 C18 51.25 18 59.5 18 68 C12.39 68 6.78 68 1 68 C0.33971219 45.32618833 -0.17618814 22.68490079 0 0 Z " fill="#FEFDFB" transform="translate(225,250)"/>
<path d="M0 0 C0 4.62 0 9.24 0 14 C-9.71016968 14.8827427 -19.26369117 15.11248624 -29 15 C-28.67 18.96 -28.34 22.92 -28 27 C-19.09 27 -10.18 27 -1 27 C-1 31.29 -1 35.58 -1 40 C-10.06688587 41.00743176 -18.88627225 41.07789511 -28 41 C-28 45.95 -28 50.9 -28 56 C-25.69 55.835 -23.38 55.67 -21 55.5 C-12.66020471 54.9430258 -4.35459861 54.90001145 4 55 C4 59.62 4 64.24 4 69 C-1.38924848 69.28785531 -6.77865066 69.5725722 -12.16821289 69.85449219 C-13.99833557 69.95065309 -15.82841489 70.04764336 -17.65844727 70.14550781 C-20.30213386 70.28673501 -22.94596658 70.4248922 -25.58984375 70.5625 C-26.79978249 70.62812134 -26.79978249 70.62812134 -28.03416443 70.69506836 C-33.36326786 70.96859385 -38.66378144 71.03729991 -44 71 C-46.41800643 24.44694534 -46.41800643 24.44694534 -46 2 C-41.53865427 1.70985627 -37.07699398 1.425305 -32.61499023 1.14550781 C-31.10317819 1.04996758 -29.59145505 0.9530079 -28.07983398 0.85449219 C-18.70005513 0.24432403 -9.40662217 -0.10851186 0 0 Z " fill="#FEFBF7" transform="translate(215,250)"/>
<path d="M0 0 C15.33519164 0.628028 30.66834732 1.29076016 46 2 C46 6.62 46 11.24 46 16 C42.49979608 15.85818139 38.99989212 15.71166843 35.5 15.5625 C34.51773438 15.52318359 33.53546875 15.48386719 32.5234375 15.44335938 C26.9626941 15.20239383 21.51144691 14.78078831 16 14 C16 18.62 16 23.24 16 28 C17.45792969 27.98839844 18.91585938 27.97679687 20.41796875 27.96484375 C22.34114455 27.9554624 24.26432174 27.94636257 26.1875 27.9375 C27.14720703 27.92912109 28.10691406 27.92074219 29.09570312 27.91210938 C30.02705078 27.90888672 30.95839844 27.90566406 31.91796875 27.90234375 C33.19837036 27.89448853 33.19837036 27.89448853 34.50463867 27.88647461 C37 28 37 28 42 29 C42 33.62 42 38.24 42 43 C23.17995444 42.03644647 23.17995444 42.03644647 14 41 C14 45.95 14 50.9 14 56 C16.1346875 56.09087891 16.1346875 56.09087891 18.3125 56.18359375 C20.20834079 56.2680619 22.10417372 56.3527067 24 56.4375 C25.40185547 56.49647461 25.40185547 56.49647461 26.83203125 56.55664062 C32.27188123 56.80390653 37.60694577 57.24319168 43 58 C43 62.29 43 66.58 43 71 C27.21780016 71.48810927 11.67065019 69.66508039 -4 68 C-4.0436755 59.67461788 -4.04479044 51.37661127 -3.5625 43.0625 C-3.50352539 41.90524414 -3.50352539 41.90524414 -3.44335938 40.72460938 C-3.21055943 36.48048725 -2.79477662 32.3125126 -2.23413086 28.09643555 C-1.68381098 23.16880589 -1.59318983 18.1978429 -1.39453125 13.24609375 C-1.19620452 8.75296747 -0.87067632 4.42593795 0 0 Z " fill="#FEFCF9" transform="translate(442,253)"/>
<path d="M0 0 C2.01953125 1.38671875 2.01953125 1.38671875 3.01953125 4.38671875 C2.0234375 6.8671875 2.0234375 6.8671875 0.58203125 9.57421875 C0.10894531 10.47527344 -0.36414063 11.37632812 -0.8515625 12.3046875 C-1.22410156 12.99175781 -1.59664062 13.67882812 -1.98046875 14.38671875 C-3.43941135 13.90941037 -4.89760371 13.42980833 -6.35546875 12.94921875 C-7.16757813 12.68238281 -7.9796875 12.41554688 -8.81640625 12.140625 C-10.98046875 11.38671875 -10.98046875 11.38671875 -12.98046875 10.38671875 C-15.14457559 10.26427586 -17.31293398 10.21120733 -19.48046875 10.19921875 C-21.2284375 10.17794922 -21.2284375 10.17794922 -23.01171875 10.15625 C-26.09953593 10.07228161 -26.09953593 10.07228161 -27.98046875 12.38671875 C-28.14727984 15.47019701 -28.14727984 15.47019701 -27.98046875 18.38671875 C-23.02881842 20.55701655 -18.34531333 22.44421862 -12.98046875 23.26171875 C-6.71519763 24.3882817 -0.83709295 27.25875293 3.5 32.0078125 C6.86971435 36.88599104 7.57041144 41.58688583 7.01953125 47.38671875 C5.67097231 53.89444354 2.35554978 58.48352001 -2.98046875 62.38671875 C-11.87446491 67.65781088 -22.95832874 67.53764235 -32.98046875 66.38671875 C-37.96976977 65.09038578 -42.08388238 62.77505472 -45.98046875 59.38671875 C-45.49722056 54.23207141 -42.79436114 50.57121556 -39.98046875 46.38671875 C-37.20804011 47.47888761 -34.60652013 48.58927425 -31.98046875 50.01171875 C-26.69989064 52.31320965 -20.6118738 51.97268928 -14.98046875 51.38671875 C-13.99046875 50.72671875 -13.00046875 50.06671875 -11.98046875 49.38671875 C-11.31366507 46.42951247 -11.31366507 46.42951247 -11.98046875 43.38671875 C-16.12461129 39.52837914 -22.62962882 38.77940311 -27.98046875 37.38671875 C-35.83576178 35.28391723 -40.36613372 32.30822129 -44.98046875 25.38671875 C-46.96252735 19.44054294 -47.05604892 12.70997192 -44.41796875 7.01171875 C-32.46712715 -5.85841836 -15.90479681 -7.40740886 0 0 Z " fill="#FEFCF9" transform="translate(156.98046875,257.61328125)"/>
<path d="M0 0 C2.63139449 1.84803528 4.71625876 3.71625876 7 6 C6.38801624 9.43950364 5.07941153 11.51564485 2.9375 14.25 C2.38964844 14.95640625 1.84179688 15.6628125 1.27734375 16.390625 C0.85582031 16.92171875 0.43429687 17.4528125 0 18 C-3.3109076 16.86187551 -5.86751219 15.39417991 -8.6875 13.375 C-13.36091156 10.39779831 -17.58663626 10.01905489 -23 11 C-27.98669007 13.49334503 -31.49675474 16.99350949 -34 22 C-34.17794636 24.76546142 -34.27761722 27.48263275 -34.3125 30.25 C-34.35600586 31.37728516 -34.35600586 31.37728516 -34.40039062 32.52734375 C-34.46125004 37.8923349 -33.35276648 40.63545191 -30 45 C-30 45.66 -30 46.32 -30 47 C-23.70002294 49.92206728 -16.09631694 50.40354425 -9.48046875 48.13671875 C-7.60552511 47.18011485 -5.7960528 46.09758782 -4 45 C-3.01 44.67 -2.02 44.34 -1 44 C0.03902033 45.38234878 1.05563446 46.78155791 2.0625 48.1875 C2.63097656 48.96480469 3.19945312 49.74210937 3.78515625 50.54296875 C5 53 5 53 4.875 55.63671875 C3.04339271 60.58369381 -1.94588188 62.43389953 -6.375 64.8125 C-15.20818891 67.81440404 -27.46827859 67.41735699 -35.86328125 63.3125 C-44.00620948 58.31062818 -49.81842282 51.43998333 -52.55566406 42.10498047 C-54.36692483 33.52438138 -54.6556796 21.57369344 -50.25390625 13.84375 C-49.84011719 13.2353125 -49.42632812 12.626875 -49 12 C-48.57589844 11.3090625 -48.15179688 10.618125 -47.71484375 9.90625 C-42.87223856 2.67606509 -35.78135744 -2.12182784 -27.43359375 -4.5234375 C-17.44654106 -6.47916852 -8.99621175 -4.6296994 0 0 Z " fill="#FEFBF8" transform="translate(427,255)"/>
<path d="M0 0 C5.94 0 11.88 0 18 0 C22.55319459 13.6056998 26.94411134 27.19839483 30.43896484 41.12060547 C31.1147022 44.86366009 31.1147022 44.86366009 33 48 C33.20753906 47.17242187 33.41507812 46.34484375 33.62890625 45.4921875 C35.93263474 36.56644447 38.5908215 27.79474405 41.44946289 19.03076172 C43.49364881 12.73183682 45.29646417 6.39990968 47 0 C52.61 0 58.22 0 64 0 C61.01839664 11.74074582 56.99686753 23.13687964 53.1184082 34.60375977 C49.77121415 44.51274524 46.47731017 54.39342879 43.72436523 64.48706055 C43 67 43 67 42 69 C35.4 69 28.8 69 22 69 C18.33573191 58.72567967 14.76112695 48.51247972 11.77685547 38.02246094 C10.16126019 32.39779589 8.21300019 26.92861251 6.19921875 21.43359375 C3.74462936 14.40563261 1.80496188 7.21984754 0 0 Z " fill="#FEFBF8" transform="translate(280,249)"/>
<path d="M0 0 C1.8203125 0.1328125 1.8203125 0.1328125 4 1 C5.4296875 3.6171875 5.4296875 3.6171875 6.875 6.875 C9.10001206 10.99249484 10.18390014 12.66569403 14.56640625 14.4609375 C18.05336526 15.17170008 21.45490047 15.70498478 25 16 C25.77734375 17.73828125 25.77734375 17.73828125 26 20 C24.12890625 21.98046875 24.12890625 21.98046875 21.5625 24.1875 C17.52324647 28.34555511 16.44524893 31.15713546 16.36499023 36.7746582 C16.47067978 40.20049403 16.67927735 43.58687752 17 47 C13.07574651 46.5234835 10.11154788 46.05179009 6.5 44.375 C1.90728556 42.57071933 -1.28606034 42.90871058 -5.85546875 44.74609375 C-6.46003906 45.01550781 -7.06460938 45.28492188 -7.6875 45.5625 C-11 47 -11 47 -15 47 C-14.91878906 45.865625 -14.83757812 44.73125 -14.75390625 43.5625 C-14.11466914 35.121439 -14.11466914 35.121439 -16.48828125 27.23046875 C-18.30868943 25.18343637 -18.30868943 25.18343637 -20.2734375 23.54296875 C-22.16786662 21.84998345 -23.00511951 20.31636316 -24 18 C-21.215707 15.215707 -18.113137 15.05089931 -14.375 14.375 C-13.66859375 14.2409375 -12.9621875 14.106875 -12.234375 13.96875 C-10.49088082 13.63889975 -8.74559611 13.31853944 -7 13 C-6.72414063 12.08992188 -6.44828125 11.17984375 -6.1640625 10.2421875 C-4.69043396 6.13778586 -2.62704484 3.45663795 0 0 Z " fill="#FAFBFB" transform="translate(129,106)"/>
<path d="M0 0 C1.8203125 0.1328125 1.8203125 0.1328125 4 1 C5.4296875 3.6171875 5.4296875 3.6171875 6.875 6.875 C9.10001206 10.99249484 10.18390014 12.66569403 14.56640625 14.4609375 C18.05336526 15.17170008 21.45490047 15.70498478 25 16 C25.7421875 17.7734375 25.7421875 17.7734375 26 20 C24.3828125 21.7265625 24.3828125 21.7265625 22.125 23.625 C16.52239107 29.41306114 16.97753369 35.75809391 16.9375 43.37890625 C16.958125 44.57386719 16.97875 45.76882812 17 47 C13.07574651 46.5234835 10.11154788 46.05179009 6.5 44.375 C2.35012184 42.74469072 0.28612094 42.9089874 -4 44 C-6.00781177 44.98422146 -8.00892752 45.98234073 -10 47 C-11.32 47 -12.64 47 -14 47 C-13.979375 45.7934375 -13.95875 44.586875 -13.9375 43.34375 C-13.70481823 34.32917451 -13.70481823 34.32917451 -16.8828125 26.19921875 C-19.05583363 24.16875316 -19.05583363 24.16875316 -21.3828125 22.60546875 C-22.18332031 21.81076172 -22.18332031 21.81076172 -23 21 C-22.7421875 18.30078125 -22.7421875 18.30078125 -22 16 C-20.62328125 15.90138672 -20.62328125 15.90138672 -19.21875 15.80078125 C-12.3266655 15.06739176 -12.3266655 15.06739176 -6.55175781 11.58203125 C-3.84975759 7.996082 -1.86918967 4.06926073 0 0 Z " fill="#FAFBFB" transform="translate(468,106)"/>
<path d="M0 0 C3.23893639 1.39568955 5.09238383 2.98099276 7.36328125 5.66015625 C15.31103386 15.2434108 15.31103386 15.2434108 26.48120117 19.47827148 C29.35184374 19.50916847 32.15254409 19.36002316 35 19 C35.0810206 21.10353495 35.13919907 23.20795952 35.1875 25.3125 C35.23970703 27.07013672 35.23970703 27.07013672 35.29296875 28.86328125 C35 32 35 32 33.8125 33.90625 C31.36675609 35.38212995 29.64795239 35.29797217 26.8125 35.1875 C25.224375 35.125625 23.63625 35.06375 22 35 C22 39.29 22 43.58 22 48 C18.03125728 45.67683353 15.68313371 43.63809268 12.9921875 39.8984375 C10.0229503 36.44238213 8.12069352 35.42001117 3.57421875 35.0703125 C1.61200747 35.04925591 -0.35099416 35.06833141 -2.3125 35.125 C-4.28773593 35.13517507 -6.26302632 35.13814742 -8.23828125 35.1328125 C-9.10493408 35.15230957 -9.97158691 35.17180664 -10.86450195 35.19189453 C-13 35 -13 35 -15 33 C-16.34853624 26.27189759 -17.37809625 18.71886268 -13.51904297 12.68408203 C-9.50639978 7.93041711 -4.86758231 3.8578179 0 0 Z " fill="#5F727D" transform="translate(135,426)"/>
<path d="M0 0 C5.94 0 11.88 0 18 0 C17.89156009 7.68493746 17.77935299 15.36980267 17.66066074 23.05458832 C17.60568451 26.62360271 17.55230755 30.19262558 17.50268555 33.76171875 C17.45466557 37.21123244 17.40231393 40.66065653 17.34705925 44.11006165 C17.31700158 46.05522387 17.29133754 48.00045239 17.26576233 49.94567871 C17.16446659 56.04337046 16.92500009 61.9693944 16 68 C10.72 68 5.44 68 0 68 C0 45.56 0 23.12 0 0 Z " fill="#FEFCF9" transform="translate(349,250)"/>
<path d="M0 0 C12.87 0 25.74 0 39 0 C39 1.98 39 3.96 39 6 C28.77 6 18.54 6 8 6 C8 12.93 8 19.86 8 27 C17.57 27 27.14 27 37 27 C37 29.31 37 31.62 37 34 C27.43 34 17.86 34 8 34 C8 41.92 8 49.84 8 58 C18.56 58 29.12 58 40 58 C40 60.31 40 62.62 40 65 C26.8 65 13.6 65 0 65 C0 43.55 0 22.1 0 0 Z " fill="#F4F5F6" transform="translate(376,96)"/>
<path d="M0 0 C12.54 0 25.08 0 38 0 C38 1.98 38 3.96 38 6 C28.1 6 18.2 6 8 6 C8 12.93 8 19.86 8 27 C17.24 27 26.48 27 36 27 C36 29.31 36 31.62 36 34 C26.76 34 17.52 34 8 34 C8 41.92 8 49.84 8 58 C18.23 58 28.46 58 39 58 C39 60.31 39 62.62 39 65 C26.13 65 13.26 65 0 65 C0 43.55 0 22.1 0 0 Z " fill="#F4F5F6" transform="translate(184,96)"/>
<path d="M0 0 C2.97 0 5.94 0 9 0 C9.33 0.99 9.66 1.98 10 3 C10.4021875 2.51273437 10.804375 2.02546875 11.21875 1.5234375 C13.4517553 -0.38636966 14.59825803 -0.40401742 17.5 -0.375 C18.2734375 -0.38273437 19.046875 -0.39046875 19.84375 -0.3984375 C22.45159728 0.08344732 23.33871866 0.98729376 25 3 C25.61875 2.690625 26.2375 2.38125 26.875 2.0625 C30.98920048 0.00539976 34.38684889 -0.66280907 39 0 C41.8100346 1.79363911 43.50940468 3.01880935 45 6 C45.08449628 7.7404417 45.10723024 9.48409722 45.09765625 11.2265625 C45.09443359 12.2578125 45.09121094 13.2890625 45.08789062 14.3515625 C45.07532227 15.97191406 45.07532227 15.97191406 45.0625 17.625 C45.05798828 18.71296875 45.05347656 19.8009375 45.04882812 20.921875 C45.0370179 23.61460662 45.01908205 26.30731009 45 29 C41.7 29 38.4 29 35 29 C34.67 22.4 34.34 15.8 34 9 C32.68 8.67 31.36 8.34 30 8 C27.6031335 10.3968665 27.71718867 11.07028314 27.5859375 14.3515625 C27.54726563 15.20234375 27.50859375 16.053125 27.46875 16.9296875 C27.42234375 18.26386719 27.42234375 18.26386719 27.375 19.625 C27.33632813 20.5221875 27.29765625 21.419375 27.2578125 22.34375 C27.16341224 24.56215605 27.08061195 26.78105013 27 29 C24.03 29 21.06 29 18 29 C17.505 19.1 17.505 19.1 17 9 C15.02 9 13.04 9 11 9 C9.88176185 11.23647631 9.80603939 12.64891529 9.68359375 15.1328125 C9.64169922 15.93847656 9.59980469 16.74414062 9.55664062 17.57421875 C9.49766602 18.83685547 9.49766602 18.83685547 9.4375 20.125 C9.39431641 20.97449219 9.35113281 21.82398438 9.30664062 22.69921875 C9.20045764 24.79928223 9.09971503 26.89961948 9 29 C6.03 29 3.06 29 0 29 C0 19.43 0 9.86 0 0 Z " fill="#F69428" transform="translate(257,432)"/>
<path d="M0 0 C3.3 0 6.6 0 10 0 C10 12.87 10 25.74 10 39 C6.7 39 3.4 39 0 39 C0 33.72 0 28.44 0 23 C-4.62 23 -9.24 23 -14 23 C-14 28.28 -14 33.56 -14 39 C-16.97 39 -19.94 39 -23 39 C-23 26.46 -23 13.92 -23 1 C-20.03 1 -17.06 1 -14 1 C-14 5.62 -14 10.24 -14 15 C-9.38 15 -4.76 15 0 15 C0 10.05 0 5.1 0 0 Z " fill="#F69429" transform="translate(212,422)"/>
<path d="M0 0 C7.83898597 2.80338838 12.60334175 9.46291954 17.33007812 15.98779297 C19.49050886 18.6983481 21.96117454 20.76336076 24.69702148 22.87304688 C25.12329834 23.26766113 25.5495752 23.66227539 25.98876953 24.06884766 C25.98876953 24.72884766 25.98876953 25.38884766 25.98876953 26.06884766 C17.01534414 27.57913417 6.91321479 29.18735269 -1.11083984 24.10595703 C-7.44368038 18.75514743 -12.86974406 12.55609226 -18.01123047 6.06884766 C-21.47193014 7.53989923 -23.54976849 9.45491363 -26.09326172 12.20166016 C-26.86089844 13.00732422 -27.62853516 13.81298828 -28.41943359 14.64306641 C-30.02071269 16.34190516 -31.61193471 18.05028062 -33.19287109 19.76806641 C-38.99178862 25.80436652 -38.99178862 25.80436652 -42.14550781 26.62255859 C-44.08544922 26.62353516 -44.08544922 26.62353516 -47.01123047 26.06884766 C-46.18107422 25.10849609 -45.35091797 24.14814453 -44.49560547 23.15869141 C-42.69494752 21.07385728 -40.94021045 18.97763452 -39.24755859 16.80371094 C-28.49596843 3.07978963 -17.90547621 -3.74270588 0 0 Z " fill="#F69225" transform="translate(155.01123046875,414.93115234375)"/>
<path d="M0 0 C15.51 0 31.02 0 47 0 C47 1.98 47 3.96 47 6 C40.73 6 34.46 6 28 6 C28 25.47 28 44.94 28 65 C25.36 65 22.72 65 20 65 C20 45.53 20 26.06 20 6 C13.4 6 6.8 6 0 6 C0 4.02 0 2.04 0 0 Z " fill="#F7F8F9" transform="translate(314,96)"/>
<path d="M0 0 C3.60086223 1.94898154 6.16539846 4.33079692 8 8 C8.14851844 9.93359586 8.22130833 11.87342097 8.25 13.8125 C8.27578125 14.85019531 8.3015625 15.88789063 8.328125 16.95703125 C7.82751495 21.59959351 5.56490132 25.0292489 2 28 C-1.19156448 29.06385483 -3.58497476 29.16677982 -6.9375 29.1875 C-8.49791016 29.20876953 -8.49791016 29.20876953 -10.08984375 29.23046875 C-14.43049693 28.88671232 -16.29783351 27.78241409 -19.1875 24.5625 C-22.43488708 19.97136655 -22.67250492 15.45476213 -22 10 C-17.09159591 0.36498457 -10.27386314 -1.71651767 0 0 Z " fill="#F69327" transform="translate(246,432)"/>
<path d="M0 0 C2.64 0 5.28 0 8 0 C8 19.8 8 39.6 8 60 C16.91 60 25.82 60 35 60 C35 61.98 35 63.96 35 66 C23.45 66 11.9 66 0 66 C0 44.22 0 22.44 0 0 Z " fill="#F5F6F7" transform="translate(241,95)"/>
<path d="M0 0 C1.32 0 2.64 0 4 0 C4 12.54 4 25.08 4 38 C2.68 38 1.36 38 0 38 C-0.33 37.01 -0.66 36.02 -1 35 C-1.556875 35.4846875 -2.11375 35.969375 -2.6875 36.46875 C-6.53736069 39.01798208 -10.54585071 38.80917045 -15 38 C-17.5 35.6875 -17.5 35.6875 -19 33 C-19.66 32.01 -20.32 31.02 -21 30 C-21.71989336 24.66776662 -21.64220003 20.26225523 -19.1875 15.4375 C-16.9295646 12.92151484 -15.29093974 11.15902881 -11.84375 10.734375 C-10.68359375 10.74210937 -10.68359375 10.74210937 -9.5 10.75 C-8.7265625 10.74484375 -7.953125 10.7396875 -7.15625 10.734375 C-5 11 -5 11 -2 13 C-2 13.66 -2 14.32 -2 15 C-1.34 15 -0.68 15 0 15 C0 10.05 0 5.1 0 0 Z " fill="#677983" transform="translate(387,423)"/>
<path d="M0 0 C4.40797042 2.33892308 6.27250164 5.36303072 8 10 C8 12.31 8 14.62 8 17 C1.73 17 -4.54 17 -11 17 C-10.01 18.65 -9.02 20.3 -8 22 C-4.17495053 22.36429043 -1.30783118 22.3441661 2.375 21.375 C2.91125 21.25125 3.4475 21.1275 4 21 C6 23 6 23 6 24.9375 C4.40000446 28.23749081 2.40281105 28.78471034 -1 30 C-6.3318711 30.80316752 -10.93333476 30.40158821 -15.4921875 27.390625 C-19.43254544 23.7565125 -21.19740317 19.10463431 -21.4375 13.8125 C-20.81731785 8.40805556 -19.06069169 6.22387503 -15.5625 2.1875 C-11.07379702 -1.37639483 -5.40082485 -0.81164081 0 0 Z " fill="#F6962C" transform="translate(325,432)"/>
<path d="M0 0 C3.23300086 1.47593517 5.72160787 3.26592945 8 6 C9.676194 11.02858199 9.60642735 15.34030411 7.8125 20.25 C5.68513679 23.4777235 4.42632321 25.14407493 1 27 C-2.77625831 27.60852355 -6.22945857 27.66805389 -10 27 C-13.41311667 24.47429367 -14.66637768 23.00086696 -16 19 C-17.00903614 9.01054217 -17.00903614 9.01054217 -14.953125 4.9140625 C-10.55808172 -0.38584263 -6.50465493 -0.64257423 0 0 Z " fill="#687A84" transform="translate(466,434)"/>
<path d="M0 0 C1.98 0 3.96 0 6 0 C9.27300308 7.6002908 12.32542747 15.28361703 15.3125 23 C15.67408203 23.91998779 16.03566406 24.83997559 16.40820312 25.7878418 C16.9119043 27.09942261 16.9119043 27.09942261 17.42578125 28.4375 C17.72911377 29.21996094 18.03244629 30.00242187 18.3449707 30.80859375 C19 33 19 33 19 37 C17.35 37 15.7 37 14 37 C13.34 33.7 12.68 30.4 12 27 C3.585 27.495 3.585 27.495 -5 28 C-5.99 30.97 -6.98 33.94 -8 37 C-9.65 37 -11.3 37 -13 37 C-10.70033934 28.79420414 -7.80527873 20.85005087 -4.8125 12.875 C-4.3441091 11.61990058 -3.87600824 10.36469288 -3.40820312 9.109375 C-2.27497048 6.07184421 -1.13884527 3.03542994 0 0 Z " fill="#6E7F88" transform="translate(347,424)"/>
<path d="M0 0 C2.64 0 5.28 0 8 0 C8 21.45 8 42.9 8 65 C5.36 65 2.72 65 0 65 C0 43.55 0 22.1 0 0 Z " fill="#F5F6F7" transform="translate(291,96)"/>
<path d="M0 0 C12.87363695 -0.57216164 12.87363695 -0.57216164 18 4 C19 5 19 5 19.375 8.75 C19.34890183 12.38417034 19.07014285 12.91324437 16.625 15.9375 C12.71728674 19.00784614 10.80246646 19.11491986 5.875 19.0625 C2.966875 19.0315625 2.966875 19.0315625 0 19 C0 12.73 0 6.46 0 0 Z " fill="#F6952C" transform="translate(242,262)"/>
<path d="M0 0 C2.875 1.875 2.875 1.875 5 5 C5.82163391 9.72827059 5.5933901 13.67835842 3.625 18.0625 C1.49597961 20.60094738 0.4803982 20.93594691 -2.8125 21.375 C-6 21 -6 21 -8.875 19.1875 C-11.96584744 14.55122884 -12.00709788 10.41721198 -11 5 C-7.98994095 0.48491143 -5.40761204 -1.12658584 0 0 Z " fill="#F8F8F9" transform="translate(465,437)"/>
<path d="M0 0 C4.13799994 1.35425453 5.3971146 2.28907545 7.4375 6.125 C8.07396588 11.13716878 7.99085739 13.11051145 5.5625 17.5625 C3.4375 20.125 3.4375 20.125 1.4375 21.125 C-3.93149365 21.58193563 -3.93149365 21.58193563 -6.375 19.8125 C-9.40437562 15.5075978 -9.25878198 10.15903871 -8.5625 5.125 C-5.95976878 1.1025972 -4.80760631 0.16868794 0 0 Z " fill="#F6F7F8" transform="translate(379.5625,436.875)"/>
<path d="M0 0 C2.3125 1.0234375 2.3125 1.0234375 4 2 C3.67 3.32 3.34 4.64 3 6 C2.29875 5.67 1.5975 5.34 0.875 5 C-2.26003116 3.90955438 -4.70563182 3.84677357 -8 4 C-8.33 5.65 -8.66 7.3 -9 9 C-8.32453125 9.24234375 -7.6490625 9.4846875 -6.953125 9.734375 C2.85074627 13.41791045 2.85074627 13.41791045 5 17 C5 20.5625 5 20.5625 4 24 C1.78679151 26.17799836 0.43086234 26.93537065 -2.65625 27.3984375 C-3.5946875 27.39070313 -4.533125 27.38296875 -5.5 27.375 C-6.90765625 27.38660156 -6.90765625 27.38660156 -8.34375 27.3984375 C-11.36316774 26.94552484 -12.74702018 26.00855276 -15 24 C-14.505 22.515 -14.505 22.515 -14 21 C-10.125 21.875 -10.125 21.875 -9 23 C-7.48071962 23.07179964 -5.95832518 23.08392007 -4.4375 23.0625 C-3.61121094 23.05347656 -2.78492188 23.04445313 -1.93359375 23.03515625 C-1.29550781 23.02355469 -0.65742188 23.01195312 0 23 C0.2113453 20.6087705 0.2113453 20.6087705 -1 18 C-3.19036219 16.77180096 -5.43484662 15.88860031 -7.765625 14.95703125 C-10.6016494 13.74230052 -12.26430667 12.56580753 -14 10 C-14.58890625 6.46656253 -14.42208081 4.72904866 -12.625 1.625 C-8.62785688 -0.84942193 -4.58693094 -0.63217317 0 0 Z " fill="#6C7D87" transform="translate(443,434)"/>
<path d="M0 0 C1.65 0 3.3 0 5 0 C10.37129841 13.6332574 10.37129841 13.6332574 12 20 C13.88514664 17.17228003 14.84015359 14.87377091 15.9375 11.6875 C17.38197923 7.60833392 18.94410404 3.80340752 21 0 C22.32 0 23.64 0 25 0 C24.12933085 3.83094425 22.8736662 7.52983271 21.625 11.25 C21.40239502 11.91588135 21.17979004 12.5817627 20.95043945 13.26782227 C19.3974655 17.88618768 17.76135664 22.45755394 16 27 C14.02 27 12.04 27 10 27 C9.61328125 25.94941406 9.2265625 24.89882813 8.828125 23.81640625 C5.44941172 14.63086745 5.44941172 14.63086745 1.625 5.625 C0 2 0 2 0 0 Z " fill="#6E7F88" transform="translate(393,434)"/>
<path d="M0 0 C1.32 0 2.64 0 4 0 C4.33 0.99 4.66 1.98 5 3 C5.556875 2.505 6.11375 2.01 6.6875 1.5 C9.38162983 -0.24754367 10.85375007 -0.26218749 14 0 C14 1.32 14 2.64 14 4 C12.329375 4.4021875 12.329375 4.4021875 10.625 4.8125 C6.78159049 5.65809019 6.78159049 5.65809019 5 9 C4.63648496 11.02542148 4.63648496 11.02542148 4.5859375 13.23046875 C4.54726563 14.03291016 4.50859375 14.83535156 4.46875 15.66210938 C4.4378125 16.49548828 4.406875 17.32886719 4.375 18.1875 C4.33632813 19.03248047 4.29765625 19.87746094 4.2578125 20.74804688 C4.16363721 22.83167524 4.08073325 24.91580753 4 27 C2.68 27 1.36 27 0 27 C0 18.09 0 9.18 0 0 Z " fill="#687A84" transform="translate(478,434)"/>
<path d="M0 0 C3.06997072 -0.39191116 5.11365285 -0.47271848 7.875 1 C9.66791439 4.18740336 9.43307009 7.47154369 9 11 C8 13.5 8 13.5 7 15 C3.625 15.1875 3.625 15.1875 0 15 C-2.08133467 11.877998 -2.2737822 11.06733011 -2.25 7.5 C-2.25773438 6.33984375 -2.25773438 6.33984375 -2.265625 5.15625 C-2 3 -2 3 0 0 Z " fill="#FEF9F4" transform="translate(236,439)"/>
<path d="M0 0 C2.34452834 2.34452834 2.6926254 3.89724948 3.5625 7.0625 C4.2711258 10.3121143 4.2711258 10.3121143 6 13 C6 14.65 6 16.3 6 18 C2.04 18 -1.92 18 -6 18 C-5.50356293 12.29097373 -4.20216829 4.20216829 0 0 Z " fill="#F3F4F5" transform="translate(350,429)"/>
<path d="M0 0 C1.32 0 2.64 0 4 0 C4 8.91 4 17.82 4 27 C2.68 27 1.36 27 0 27 C0 18.09 0 9.18 0 0 Z " fill="#647680" transform="translate(421,434)"/>
<path d="M0 0 C0.66 0 1.32 0 2 0 C2 1.32 2 2.64 2 4 C2.99 4 3.98 4 5 4 C4.68289063 4.82757813 4.36578125 5.65515625 4.0390625 6.5078125 C2.90524027 10.31847819 2.55838311 13.93226312 2.375 17.875 C2.33632813 18.56335938 2.29765625 19.25171875 2.2578125 19.9609375 C2.16451834 21.64023246 2.08121762 23.32007767 2 25 C1.34 25 0.68 25 0 25 C0 16.75 0 8.5 0 0 Z " fill="#5C6F7A" transform="translate(479,435)"/>
<path d="M0 0 C1.32 0 2.64 0 4 0 C4.33 0.99 4.66 1.98 5 3 C5.556875 2.505 6.11375 2.01 6.6875 1.5 C9.38162983 -0.24754367 10.85375007 -0.26218749 14 0 C14 1.32 14 2.64 14 4 C6.375 6.125 6.375 6.125 3 5 C3 3.68 3 2.36 3 1 C2.01 0.67 1.02 0.34 0 0 Z " fill="#788891" transform="translate(478,434)"/>
<path d="M0 0 C2.5625 0.1875 2.5625 0.1875 4.5625 2.1875 C4.5625 3.1775 4.5625 4.1675 4.5625 5.1875 C1.5925 5.1875 -1.3775 5.1875 -4.4375 5.1875 C-3.20220588 0.24632353 -3.20220588 0.24632353 0 0 Z " fill="#FEF9F4" transform="translate(318.4375,437.8125)"/>
<path d="M0 0 C1.65 0.33 3.3 0.66 5 1 C4.67 2.65 4.34 4.3 4 6 C2.35 5.67 0.7 5.34 -1 5 C-0.67 3.35 -0.34 1.7 0 0 Z " fill="#74848E" transform="translate(421,422)"/>
<path d="M0 0 C0.5775 0.226875 1.155 0.45375 1.75 0.6875 C0.6671875 1.30625 0.6671875 1.30625 -0.4375 1.9375 C-3.22969862 3.67486803 -5.72012585 5.59131857 -8.25 7.6875 C-6.86345583 3.41232214 -5.12511737 -0.71182186 0 0 Z " fill="#7A8992" transform="translate(375.25,434.3125)"/>
<path d="M0 0 C0.33 0 0.66 0 1 0 C1.33 3.96 1.66 7.92 2 12 C1.01 12.33 0.02 12.66 -1 13 C-0.67 8.71 -0.34 4.42 0 0 Z " fill="#D3D8DA" transform="translate(449,443)"/>
<path d="M0 0 C0.99 0 1.98 0 3 0 C3 1.32 3 2.64 3 4 C1.35 4 -0.3 4 -2 4 C-1.34 2.68 -0.68 1.36 0 0 Z " fill="#677983" transform="translate(489,434)"/>
</svg>
