<?xml version="1.0" encoding="UTF-8"?>
<svg version="1.1" xmlns="http://www.w3.org/2000/svg" width="600" height="600">
<path d="M0 0 C198 0 396 0 600 0 C600 198 600 396 600 600 C402 600 204 600 0 600 C0 402 0 204 0 0 Z " fill="#FEFEFE" transform="translate(0,0)"/>
<path d="M0 0 C13.42846996 -1.60428623 24.10279166 6.76310268 34.24316406 14.59960938 C47.10069382 24.84846856 56.5084363 36.56844156 64.2878418 51.0378418 C70.08747272 61.45662614 77.717937 64.37656162 88.73046875 67.83398438 C97.79032639 70.86020238 105.30924344 75.43523804 110.00390625 83.99609375 C110.33261719 84.65738281 110.66132813 85.31867188 111 86 C111.598125 87.155 112.19625 88.31 112.8125 89.5 C114.22964178 93.61216863 114.38784977 97.81137906 114.5 102.125 C114.5460437 103.1469043 114.5460437 103.1469043 114.59301758 104.18945312 C114.59438514 107.93475281 114.04507747 110.43553632 111.7734375 113.34765625 C109.17652318 115.83118417 107.4564403 117.10445376 104.125 118.3125 C103.32320312 118.61800781 102.52140625 118.92351562 101.6953125 119.23828125 C93.84092473 121.45799953 85.718732 121.28561139 77.625 121.375 C76.34882813 121.41238281 75.07265625 121.44976562 73.7578125 121.48828125 C64.19268785 121.57721319 57.84338778 119.90291338 50.9375 113.1875 C50.298125 112.465625 49.65875 111.74375 49 111 C49.55105909 114.9492568 50.38935371 118.34920174 52 122 C51 123 51 123 48.3125 123.5 C43.91077386 122.83558851 42.73927386 120.93998468 40.1015625 117.53125 C39.73804688 117.0259375 39.37453125 116.520625 39 116 C39.37238429 121.95814858 40.78112057 126.62090996 45 131 C48.84404819 133.39041652 52.85747982 135.19264564 57 137 C62.70547945 139.70547945 62.70547945 139.70547945 65 142 C65.3125 144.5 65.3125 144.5 65 147 C59.42826287 150.71449142 51.67563293 149.61954719 45.2421875 148.53515625 C33.95005888 145.4670377 25.26975138 139.07242543 17 131 C16.74089844 131.75925781 16.48179687 132.51851562 16.21484375 133.30078125 C14.9549934 136.09999858 13.92358155 137.29355717 11.5625 139.1875 C10.66724609 139.92033203 10.66724609 139.92033203 9.75390625 140.66796875 C6.43222996 143.19066722 5.33147152 144 1 144 C2.13732736 141.70886227 3.29507097 139.43099047 4.47265625 137.16015625 C5.25962891 135.62681641 5.25962891 135.62681641 6.0625 134.0625 C6.58972656 133.04285156 7.11695313 132.02320313 7.66015625 130.97265625 C11.50790157 122.43582189 11.04516329 112.97964516 7.875 104.3125 C3.14863802 93.21351513 -2.89135571 85.22579935 -13.8125 79.859375 C-25.03257574 75.4514881 -38.07832746 75.28612328 -49.3515625 79.671875 C-60.00613905 85.01487799 -67.65346951 93.7590124 -71.6875 104.8984375 C-74.8441475 115.63980748 -73.10519173 126.23262284 -67.9140625 136.0546875 C-66.48727921 138.29677553 -65.40450095 139.79774953 -63 141 C-63.433125 140.03126953 -63.433125 140.03126953 -63.875 139.04296875 C-67.92838903 128.75467923 -69.20419782 116.95677051 -65.82421875 106.2890625 C-63.332526 101.07389162 -60.50793641 96.69881962 -56 93 C-55.2575 92.319375 -54.515 91.63875 -53.75 90.9375 C-44.41336151 84.35941379 -35.17196207 83.75867088 -24 85 C-20.519363 85.80689664 -17.94591211 87.00247006 -15 89 C-13.86884766 89.72896484 -13.86884766 89.72896484 -12.71484375 90.47265625 C-5.58055829 95.51072428 0.37384356 102.55965536 3 111 C4.48234075 124.81142485 1.72939457 134.00641822 -6.8125 145.125 C-7.39644531 145.82882812 -7.98039062 146.53265625 -8.58203125 147.2578125 C-10.06782276 148.95418401 -10.06782276 148.95418401 -11 151 C-9.22109375 150.91298828 -9.22109375 150.91298828 -7.40625 150.82421875 C4.04568834 150.44387415 13.31982394 151.87524235 24 156 C18.42004687 169.0099442 2.96344857 176.39428018 -9.171875 181.9921875 C-25.46755208 187.79921055 -45.27645699 187.16121761 -61 180 C-78.98908942 170.91026201 -91.57052099 156.47655233 -98.25390625 137.42578125 C-102.3130778 124.12631636 -102.78242655 109.38624397 -99 96 C-98.4618548 92.23298361 -98.77584918 91.32221681 -101 88.125 C-103.46844662 84.26805215 -103.78982285 82.50199024 -103 78 C-100.87075542 74.73472554 -98.52192127 71.76096064 -95 70 C-94.26910156 70.09539062 -93.53820312 70.19078125 -92.78515625 70.2890625 C-89.58501494 70.68391494 -87.16406466 70.68696168 -84 70 C-81.49522002 68.00338401 -79.40865559 65.87602564 -77.27661133 63.49267578 C-66.00214355 51.02585064 -49.83759017 46.07218181 -33.4921875 44.70703125 C-25.93254302 44.51576314 -19.17995511 45.67058866 -12 48 C-10.69095703 48.42345703 -10.69095703 48.42345703 -9.35546875 48.85546875 C1.07861019 52.75145531 10.46616433 59.01011728 19.94384766 64.77246094 C24.58861305 67.54542228 28.65191179 67.59156731 34 67 C38.03309859 65.5160548 40.58583036 63.62125446 43 60 C42.35160156 59.78472656 41.70320312 59.56945312 41.03515625 59.34765625 C36.8535287 57.49094904 33.21999901 54.99624933 29.4375 52.4375 C28.63683105 51.89810791 27.83616211 51.35871582 27.01123047 50.80297852 C10.32631332 39.49244925 -7.56354585 27.05429675 -16 8 C-16 7.01 -16 6.02 -16 5 C-2.86302186 5.45299925 7.98357497 11.93944495 18 20 C19.33804688 21.051875 19.33804688 21.051875 20.703125 22.125 C33.58881803 32.43355443 46.78959953 43.97293733 57 57 C46.87805171 32.72969305 23.09115661 12.4133049 0 1 C0 0.67 0 0.34 0 0 Z " fill="#FCFDFC" transform="translate(307,145)"/>
<path d="M0 0 C1.28758991 0.54441721 2.56618499 1.11049932 3.8359375 1.6953125 C4.52397461 2.00629883 5.21201172 2.31728516 5.92089844 2.63769531 C18.33190213 8.49258773 28.40881454 17.37593125 38.2109375 26.8203125 C38.93925781 27.48546875 39.66757812 28.150625 40.41796875 28.8359375 C47.33401628 35.32911033 52.86422061 43.22996489 57.2421875 51.62890625 C61.6423702 60.39008935 61.6423702 60.39008935 69.8671875 65.24609375 C70.640625 65.43558594 71.4140625 65.62507813 72.2109375 65.8203125 C85.02019141 69.37612811 96.28104304 74.36769733 103.22265625 86.26953125 C108.74798093 96.75940138 110.84659568 106.99142219 109.2109375 118.8203125 C107.10475838 124.11584858 103.16832069 127.4978709 98.1328125 130.015625 C89.77507409 133.51500328 82.05522647 134.98180889 72.96875 134.91796875 C72.20037811 134.9165538 71.43200623 134.91513885 70.64035034 134.91368103 C68.20550511 134.90811933 65.77075456 134.8955741 63.3359375 134.8828125 C61.67708467 134.87779254 60.01823038 134.87323051 58.359375 134.86914062 C54.3098598 134.85816248 50.26041466 134.84092456 46.2109375 134.8203125 C46.2109375 135.4803125 46.2109375 136.1403125 46.2109375 136.8203125 C47.78875 137.1915625 47.78875 137.1915625 49.3984375 137.5703125 C53.75717142 138.82322792 56.77843937 140.910315 59.5234375 144.5703125 C60.91437473 149.12247071 60.78018884 153.21929309 59.2109375 157.6328125 C55.60690648 161.57472143 50.80254598 162.5690059 45.6484375 163.3828125 C41.08450834 165.29136469 39.7145134 167.96037875 37.08203125 172.03515625 C24.03719801 191.45262201 4.38923878 203.1384185 -18.1015625 208.1953125 C-42.64794811 211.87351707 -65.88955497 206.48825417 -85.7890625 191.8203125 C-98.79714903 181.59173164 -107.10318115 169.69323708 -113.7890625 154.8203125 C-114.21058594 153.93601562 -114.63210937 153.05171875 -115.06640625 152.140625 C-121.17351884 138.45147451 -123.01740724 121.21349374 -119.17578125 106.74609375 C-118.41626471 102.96385483 -118.97086701 99.32190498 -120.80859375 95.94921875 C-122.98900652 91.21485636 -122.70258524 85.34418463 -120.94921875 80.5 C-118.06530231 75.39245776 -114.11672893 72.19840582 -108.7890625 69.8203125 C-107.13197266 69.46259766 -107.13197266 69.46259766 -105.44140625 69.09765625 C-100.71676005 67.44529335 -98.51495632 64.90632963 -95.2265625 61.2578125 C-81.53449367 46.85355682 -62.49700486 36.36459296 -42.26318359 35.74267578 C-39.45859138 35.7222697 -36.65610773 35.73289173 -33.8515625 35.7578125 C-32.88154297 35.76232422 -31.91152344 35.76683594 -30.91210938 35.77148438 C-28.5376949 35.783181 -26.16341229 35.79957164 -23.7890625 35.8203125 C-24.41554688 34.85609375 -25.04203125 33.891875 -25.6875 32.8984375 C-26.51312881 31.6224657 -27.33864366 30.34642015 -28.1640625 29.0703125 C-28.5765625 28.43609375 -28.9890625 27.801875 -29.4140625 27.1484375 C-33.46823988 20.87100156 -35.8480119 16.50122551 -34.7890625 8.8203125 C-33.4765625 6.3203125 -33.4765625 6.3203125 -30.7890625 4.8203125 C-28.05908682 4.50919168 -25.34158768 4.37284697 -22.59765625 4.234375 C-18.92073578 3.69229771 -16.75927875 2.21489408 -13.93359375 -0.12109375 C-9.27312097 -2.42161857 -4.7398495 -1.47570572 0 0 Z M-11.7890625 6.8203125 C-9.38842564 9.52301625 -6.87382353 10.94257044 -3.6640625 12.5703125 C5.75517628 17.60793429 13.43738271 24.56180063 21.2109375 31.8203125 C22.45037109 32.96113281 22.45037109 32.96113281 23.71484375 34.125 C32.59530176 42.60243253 40.24606916 52.53652082 45.2109375 63.8203125 C43.99470703 62.36238281 43.99470703 62.36238281 42.75390625 60.875 C33.02876633 49.53992628 22.11121225 38.84998662 10.2109375 29.8203125 C8.80521484 28.68916016 8.80521484 28.68916016 7.37109375 27.53515625 C-2.34436565 19.8879024 -14.95880008 11.20934762 -27.7890625 11.8203125 C-25.69607719 25.9416592 -11.02353296 38.85923459 -0.08325195 47.0690918 C6.86095372 52.12231946 14.05335597 56.83627839 21.24560547 61.52636719 C23.05510723 62.71771617 24.83775009 63.94194558 26.62109375 65.171875 C28.98048101 66.99929844 28.98048101 66.99929844 31.2109375 66.8203125 C27.08236623 71.17824884 23.95415906 74.04856776 17.8359375 74.4453125 C10.93217984 74.30359313 5.6943138 70.53065365 0.04296875 66.96679688 C-19.47009105 54.75553237 -37.45867982 48.4765283 -60.66796875 53.6640625 C-74.05563872 57.1246909 -85.56917932 64.96040363 -94.28515625 75.65625 C-96.5401456 77.40167032 -98.25748713 76.90086934 -101.0390625 76.6328125 C-105.38475659 76.4887245 -107.59077572 76.83397637 -110.9140625 79.6953125 C-113.71363485 82.46809468 -114.71492054 84.04923612 -115.1015625 88.0703125 C-115.0997727 91.90317558 -115.0997727 91.90317558 -112.7265625 94.7578125 C-110.44328713 98.36686067 -110.58271784 99.76643845 -111.33203125 103.79296875 C-111.64547808 105.18338674 -111.97581599 106.57007285 -112.3203125 107.953125 C-115.45798136 127.14519951 -111.89160378 147.74348708 -100.45849609 163.67431641 C-89.39548297 178.16096983 -74.88029734 188.1994031 -56.7890625 191.8203125 C-52.77693056 192.20724753 -48.8171987 192.24191048 -44.7890625 192.1953125 C-43.78617187 192.20691406 -42.78328125 192.21851563 -41.75 192.23046875 C-31.57226684 192.19102017 -22.66940881 189.73793337 -13.6640625 185.0703125 C-12.97884521 184.71960693 -12.29362793 184.36890137 -11.58764648 184.00756836 C-2.4138306 179.19074431 5.43617566 172.68416136 12.2109375 164.8203125 C12.2109375 164.1603125 12.2109375 163.5003125 12.2109375 162.8203125 C0.29877876 158.21975464 -10.06703663 157.1980395 -22.7890625 157.8203125 C-20.56998909 154.43909504 -18.31834383 151.16254111 -15.7890625 148.0078125 C-8.78869757 138.52000826 -7.18330835 129.46637779 -8.7890625 117.8203125 C-11.67064467 107.90052962 -19.05090471 100.58409321 -27.48046875 95.046875 C-35.57091202 90.74839922 -44.84347786 90.6319037 -53.7890625 91.8203125 C-60.5380737 93.96935866 -66.25881808 97.29907712 -70.7890625 102.8203125 C-71.4696875 103.5628125 -72.1503125 104.3053125 -72.8515625 105.0703125 C-79.61438348 114.66915519 -80.03708198 124.34093334 -78.7890625 135.8203125 C-77.92683981 140.31105569 -76.49399736 144.5808093 -74.7890625 148.8203125 C-82.10827867 141.09447321 -85.20315652 131.49220442 -85.0625 120.95703125 C-84.02822371 109.09240462 -78.97795959 100.42519065 -70.3515625 92.5078125 C-59.94388449 84.10250655 -47.73521379 82.57907077 -34.7890625 83.8203125 C-24.35112797 86.0390039 -14.87147677 92.01387221 -8.7890625 100.8203125 C-7.22943321 103.40908493 -5.96195454 106.03664872 -4.7890625 108.8203125 C-4.48871094 109.50867188 -4.18835938 110.19703125 -3.87890625 110.90625 C-0.52032213 119.5604621 -0.79610702 128.67440941 -3.72265625 137.42578125 C-5.27606404 140.91383611 -7.32775033 143.93628619 -9.58203125 147.0078125 C-10.97382456 148.7348159 -10.97382456 148.7348159 -10.7890625 150.8203125 C-4.66608766 150.43762657 0.0393338 145.9919162 4.2109375 141.8203125 C4.853461 139.75157216 4.853461 139.75157216 5.2109375 137.8203125 C6.0771875 138.8103125 6.9434375 139.8003125 7.8359375 140.8203125 C17.40944914 150.37440525 30.2413782 155.87208156 43.6484375 156.1328125 C48.76718367 156.16474075 48.76718367 156.16474075 53.2109375 153.8203125 C53.87837627 151.40686583 53.87837627 151.40686583 53.2109375 148.8203125 C49.81959988 145.66243653 46.51995088 143.9471849 42.2109375 142.3203125 C37.09119413 140.38734816 32.79673621 138.40121126 29.84765625 133.6015625 C29.53441406 132.84875 29.22117187 132.0959375 28.8984375 131.3203125 C28.57230469 130.5675 28.24617187 129.8146875 27.91015625 129.0390625 C27.2109375 126.8203125 27.2109375 126.8203125 27.2109375 122.8203125 C27.57445312 123.325625 27.93796875 123.8309375 28.3125 124.3515625 C31.54319529 128.74149704 31.54319529 128.74149704 36.5859375 130.2578125 C37.4521875 130.1134375 38.3184375 129.9690625 39.2109375 129.8203125 C39.5090799 126.0439193 39.5090799 126.0439193 38.2109375 123.8203125 C37.2109375 121.8203125 37.2109375 121.8203125 37.2109375 117.8203125 C37.71882812 118.29082031 38.22671875 118.76132812 38.75 119.24609375 C39.43835938 119.86871094 40.12671875 120.49132812 40.8359375 121.1328125 C41.50882813 121.74769531 42.18171875 122.36257813 42.875 122.99609375 C47.67193863 126.742198 51.67677625 128.19986275 57.75390625 128.18359375 C58.99333984 128.18294922 60.23277344 128.18230469 61.50976562 128.18164062 C62.79302734 128.16552734 64.07628906 128.14941406 65.3984375 128.1328125 C67.29432617 128.13764648 67.29432617 128.13764648 69.22851562 128.14257812 C80.93925274 128.07593658 92.19135135 127.82368713 100.90234375 119.1328125 C102.74030538 115.88483254 102.70147897 112.83056272 102.6484375 109.1953125 C102.64158936 108.4825415 102.63474121 107.76977051 102.62768555 107.03540039 C102.44519475 100.99816755 101.19382427 96.1166593 98.2109375 90.8203125 C97.87191406 90.18867188 97.53289062 89.55703125 97.18359375 88.90625 C91.16659857 79.18484142 80.85475808 75.60639729 70.43139648 72.48046875 C60.05908775 69.22419854 55.60394113 63.56642034 50.4609375 54.2578125 C39.13093503 34.62593027 20.54938227 14.02030709 -1.7890625 6.8203125 C-5.17429691 6.47011584 -8.40422752 6.49623256 -11.7890625 6.8203125 Z " fill="#089B50" transform="translate(318.7890625,138.1796875)"/>
<path d="M0 0 C41.82670455 0 41.82670455 0 51.61328125 8.4765625 C56.6254041 13.98283831 58.40123774 21.16579022 58.26953125 28.43359375 C57.53931595 35.38651338 55.31230516 41.28262686 50.125 46.0625 C46.94184634 48.55418207 43.98877639 50.10252531 40 51 C41.92352411 54.5585196 43.53515129 56.88259246 47 59 C50.6716161 59.67176216 54.26246065 59.77752742 58 60 C58 65.94 58 71.88 58 78 C46.87123532 78.46857957 39.21746318 77.55434294 30.83984375 69.92578125 C26.94543311 65.84946608 23.49985989 61.41520786 20 57 C19.67 63.93 19.34 70.86 19 78 C12.73 78 6.46 78 0 78 C0 52.26 0 26.52 0 0 Z " fill="#079B4F" transform="translate(255,382)"/>
<path d="M0 0 C0.33 7.26 0.66 14.52 1 22 C3.64 20.35 6.28 18.7 9 17 C17.10440288 15.55502894 25.06828811 16.45899414 32 21 C37.92741901 25.28385918 42.71453401 29.97104858 44.578125 37.26171875 C46.23516967 48.01716607 45.80538044 58.16065903 39.421875 67.24609375 C35.00946369 72.66222926 30.02419833 76.68524537 23 78 C20.54527175 78.16900499 18.08509703 78.26585145 15.625 78.3125 C14.33851563 78.34988281 13.05203125 78.38726562 11.7265625 78.42578125 C7.16987398 77.90515332 4.24653219 76.24653219 1 73 C0.67 74.32 0.34 75.64 0 77 C-5.61 77 -11.22 77 -17 77 C-17.13579411 67.9940648 -17.24576783 58.98881435 -17.31087303 49.98208523 C-17.34212749 45.79943612 -17.38449 41.61752636 -17.45263672 37.43530273 C-17.51804336 33.39575547 -17.55375029 29.35691728 -17.56926346 25.31688118 C-17.580312 23.77908229 -17.60188823 22.24132029 -17.63438034 20.703825 C-17.90865065 7.18238649 -17.90865065 7.18238649 -14.65087891 2.50024414 C-11 0 -11 0 0 0 Z " fill="#05994C" transform="translate(401,383)"/>
<path d="M0 0 C0 7.26 0 14.52 0 22 C1.5675 21.175 3.135 20.35 4.75 19.5 C12.09875758 16.17083312 19.41796041 15.65680552 27.1875 18 C34.68251931 21.35714407 40.87655013 27.54924246 44.18359375 35.0390625 C46.85633284 44.73253728 45.83582703 54.43292269 41.484375 63.44140625 C37.00802462 71.15722072 32.01964044 75.14087391 23.625 78.25 C15.59945837 79.91045689 9.99456951 79.40515777 3 75 C0.5 73.25 0.5 73.25 -1 72 C-1 73.32 -1 74.64 -1 76 C-6.28 76 -11.56 76 -17 76 C-17.06781972 67.0898801 -17.12284133 58.17993208 -17.15543652 49.26961231 C-17.17108182 45.13203644 -17.19229917 40.99464657 -17.22631836 36.85717773 C-17.25895259 32.86308149 -17.27686156 28.86916398 -17.28463173 24.87494469 C-17.29016797 23.35232416 -17.300979 21.82971325 -17.31719017 20.30716896 C-17.33901914 18.1717693 -17.34196474 16.0371049 -17.34057617 13.90161133 C-17.34723801 12.6869368 -17.35389984 11.47226227 -17.36076355 10.22077942 C-16.96247654 6.66500275 -16.1509555 4.83183436 -14 2 C-11 0 -11 0 0 0 Z " fill="#04984C" transform="translate(468,383)"/>
<path d="M0 0 C0.66 0.66 1.32 1.32 2 2 C3.32 0.68 4.64 -0.64 6 -2 C10.62 -2 15.24 -2 20 -2 C20 17.14 20 36.28 20 56 C15.38 56 10.76 56 6 56 C5.01 54.68 4.02 53.36 3 52 C0.99276958 52.99687954 -1.00260389 54.00141281 -2.97265625 55.0703125 C-8.98612017 58.10514476 -14.31106831 59.07551229 -21 58 C-27.82134262 55.74945484 -33.77265976 51.85756453 -38 46 C-39.62374152 42.74756653 -40.87687588 39.45390859 -42 36 C-42.495 34.515 -42.495 34.515 -43 33 C-43.84028773 22.40686447 -42.93181728 13.69495042 -36.25 5.1875 C-26.65801565 -5.11049335 -12.05696321 -7.73465564 0 0 Z " fill="#396452" transform="translate(117,404)"/>
<path d="M0 0 C6.15569349 -0.30872019 10.55682853 0.73274912 15.6953125 4.18359375 C16.3553125 4.84359375 17.0153125 5.50359375 17.6953125 6.18359375 C19.0153125 4.86359375 20.3353125 3.54359375 21.6953125 2.18359375 C26.3153125 2.18359375 30.9353125 2.18359375 35.6953125 2.18359375 C35.6953125 21.32359375 35.6953125 40.46359375 35.6953125 60.18359375 C31.0753125 60.18359375 26.4553125 60.18359375 21.6953125 60.18359375 C20.7053125 58.86359375 19.7153125 57.54359375 18.6953125 56.18359375 C18.13070312 56.46976562 17.56609375 56.7559375 16.984375 57.05078125 C9.66470425 60.67314391 3.00035347 63.65602714 -5.3046875 62.18359375 C-13.42279264 59.43293144 -18.99253932 54.52364998 -24.1171875 47.80859375 C-28.26831294 38.63242173 -29.14223585 27.2223371 -25.6171875 17.74609375 C-21.78926466 9.54718635 -16.29552902 5.13368559 -8.3046875 1.18359375 C-5.44006757 0.3480796 -2.94870025 0.23489646 0 0 Z " fill="#04984C" transform="translate(340.3046875,399.81640625)"/>
<path d="M0 0 C10.35714286 0 10.35714286 0 14 3 C17.38168856 6.50907564 17.41386741 9.39672956 17.51171875 14.171875 C17.53864555 15.1955014 17.53864555 15.1955014 17.56611633 16.23980713 C17.62010383 18.4098094 17.65407583 20.57959325 17.6875 22.75 C17.72068352 24.22529074 17.75517415 25.70055269 17.79101562 27.17578125 C17.87582158 30.78364427 17.94268837 34.39158362 18 38 C18.38333496 37.49549316 18.76666992 36.99098633 19.16162109 36.47119141 C20.8978595 34.18794059 22.63640049 31.90645336 24.375 29.625 C24.97828125 28.8309375 25.5815625 28.036875 26.203125 27.21875 C26.78320312 26.45820313 27.36328125 25.69765625 27.9609375 24.9140625 C28.49509277 24.2123291 29.02924805 23.5105957 29.57958984 22.78759766 C31 21 31 21 33 19 C35.06298828 18.77294922 35.06298828 18.77294922 37.5703125 18.8046875 C38.46621094 18.81113281 39.36210937 18.81757813 40.28515625 18.82421875 C41.69087891 18.84935547 41.69087891 18.84935547 43.125 18.875 C44.06988281 18.88402344 45.01476562 18.89304687 45.98828125 18.90234375 C48.32577292 18.92595478 50.66276123 18.95888484 53 19 C50.02471372 23.12611097 46.98558368 27.10882472 43.53515625 30.8515625 C42.96345703 31.47546875 42.39175781 32.099375 41.80273438 32.7421875 C40.62604373 34.0152849 39.4381607 35.27811378 38.24023438 36.53125 C34.750491 40.28302454 34.750491 40.28302454 33.94921875 45.203125 C36.13366021 51.01747475 40.51655223 57.01986534 46 60 C50.02663309 60.61745226 53.91679242 60.82051835 58 61 C58 66.28 58 71.56 58 77 C47.14445786 76.78288916 38.36786878 75.5446462 29.9453125 68.2109375 C25.1831662 63.0678195 21.64618538 56.95295572 18 51 C17.67 59.58 17.34 68.16 17 77 C11.39 77 5.78 77 0 77 C0 51.59 0 26.18 0 0 Z " fill="#396453" transform="translate(193,383)"/>
<path d="M0 0 C0.94594025 0.0028299 1.89188049 0.00565979 2.8664856 0.00857544 C5.87205944 0.01972318 8.87732952 0.04481785 11.8828125 0.0703125 C13.92707901 0.08034929 15.97135022 0.08947391 18.015625 0.09765625 C23.01313694 0.11964483 28.0104233 0.15413741 33.0078125 0.1953125 C33.0078125 6.1353125 33.0078125 12.0753125 33.0078125 18.1953125 C27.7278125 18.1953125 22.4478125 18.1953125 17.0078125 18.1953125 C17.0078125 37.9953125 17.0078125 57.7953125 17.0078125 78.1953125 C5.0078125 78.1953125 5.0078125 78.1953125 1.3828125 75.9453125 C-2.08080712 71.93480558 -3.24549685 69.36380153 -3.21923828 64.05957031 C-3.21908722 63.03881409 -3.21893616 62.01805786 -3.21878052 60.96636963 C-3.20845795 59.87145203 -3.19813538 58.77653442 -3.1875 57.6484375 C-3.1846701 56.522099 -3.18184021 55.3957605 -3.17892456 54.23529053 C-3.16773124 50.63852304 -3.14262787 47.04200471 -3.1171875 43.4453125 C-3.10715662 41.00651401 -3.09803096 38.56771162 -3.08984375 36.12890625 C-3.06779462 30.15094569 -3.03327027 24.17317134 -2.9921875 18.1953125 C-8.9321875 18.1953125 -14.8721875 18.1953125 -20.9921875 18.1953125 C-21.66183036 8.28459821 -21.66183036 8.28459821 -18.8671875 4.6953125 C-13.13671371 -0.28770819 -7.22267428 -0.08196589 0 0 Z " fill="#3C6554" transform="translate(50.9921875,381.8046875)"/>
<path d="M0 0 C3.3054939 2.29947402 5.28620857 4.87710464 7.06640625 8.4375 C7.10639825 10.43710012 7.10987424 12.43797242 7.06640625 14.4375 C4.44079516 14.51824203 1.81764949 14.5778623 -0.80859375 14.625 C-1.92814453 14.66270508 -1.92814453 14.66270508 -3.0703125 14.70117188 C-5.23828125 14.73046875 -5.23828125 14.73046875 -8.93359375 14.4375 C-9.59359375 13.4475 -10.25359375 12.4575 -10.93359375 11.4375 C-14.51716616 11.18734127 -14.51716616 11.18734127 -17.93359375 11.4375 C-17.93359375 13.4175 -17.93359375 15.3975 -17.93359375 17.4375 C-16.71671875 17.829375 -15.49984375 18.22125 -14.24609375 18.625 C-12.47416287 19.22594011 -10.70347345 19.83054537 -8.93359375 20.4375 C-7.83917969 20.80101562 -6.74476563 21.16453125 -5.6171875 21.5390625 C5.40807187 25.42737923 5.40807187 25.42737923 9.06640625 31.4375 C10.76045965 36.51966019 10.64841373 40.72149412 8.37890625 45.5625 C4.82732087 51.9283174 0.61363056 55.23113677 -6.1875 57.70703125 C-13.49840503 59.65175279 -20.17344905 59.13160117 -26.92578125 55.70703125 C-31.67630283 52.70329679 -35.49953728 49.03032022 -36.93359375 43.4375 C-36.95813699 41.77101405 -36.96132147 40.103936 -36.93359375 38.4375 C-34.34850705 38.30223384 -31.77050623 38.20332347 -29.18359375 38.125 C-28.45398438 38.08310547 -27.724375 38.04121094 -26.97265625 37.99804688 C-24.82421875 37.94921875 -24.82421875 37.94921875 -20.93359375 38.4375 C-18.61328125 40.9296875 -18.61328125 40.9296875 -16.93359375 43.4375 C-13.84851925 44.0213196 -13.84851925 44.0213196 -10.93359375 43.4375 C-10.27359375 42.7775 -9.61359375 42.1175 -8.93359375 41.4375 C-8.86030191 38.9100451 -8.86030191 38.9100451 -9.93359375 36.4375 C-12.16921037 34.8451624 -12.16921037 34.8451624 -14.99609375 33.8125 C-16.48689453 33.18988281 -16.48689453 33.18988281 -18.0078125 32.5546875 C-20.42859806 31.63032879 -22.85622472 30.7721495 -25.30859375 29.9375 C-30.37849738 27.83960884 -32.9349917 24.93540308 -35.93359375 20.4375 C-36.69911371 14.92575626 -37.03520223 9.22529573 -33.87109375 4.4375 C-25.32458616 -5.51723896 -10.9133651 -6.16613887 0 0 Z " fill="#3B6553" transform="translate(178.93359375,403.5625)"/>
<path d="M0 0 C0 6.27 0 12.54 0 19 C3.63 19 7.26 19 11 19 C11 23.29 11 27.58 11 32 C7.37 32 3.74 32 0 32 C0.08674658 35.77198057 0.19360515 39.54151419 0.3125 43.3125 C0.33505859 44.38435547 0.35761719 45.45621094 0.38085938 46.56054688 C0.4340332 48.10258789 0.4340332 48.10258789 0.48828125 49.67578125 C0.51446533 50.62364502 0.54064941 51.57150879 0.56762695 52.5480957 C0.84202715 54.98866228 0.84202715 54.98866228 2.09448242 56.77026367 C4.61603148 58.58558417 4.61603148 58.58558417 11 59 C11 64.94 11 70.88 11 77 C1.63491963 77 -2.04198547 76.50824015 -8.75 70.5625 C-17.21472352 60.92212044 -17.21472352 60.92212044 -17.32226562 53.88354492 C-17.34148071 52.86536179 -17.3606958 51.84717865 -17.38049316 50.79814148 C-17.38899292 49.70330948 -17.39749268 48.60847748 -17.40625 47.48046875 C-17.41765015 46.34853592 -17.42905029 45.21660309 -17.4407959 44.05036926 C-17.45968241 41.6556064 -17.47275853 39.26079172 -17.48046875 36.8659668 C-17.49987443 33.2111496 -17.5619228 29.5585858 -17.625 25.90429688 C-17.63806161 23.57553417 -17.64856195 21.2467554 -17.65625 18.91796875 C-17.6809436 17.82920944 -17.70563721 16.74045013 -17.7310791 15.61869812 C-17.69453995 9.362809 -16.99164828 5.74259446 -12.58163452 1.17901611 C-8.79049722 -1.64705521 -4.43875812 -0.37891838 0 0 Z " fill="#09994D" transform="translate(559,383)"/>
<path d="M0 0 C0 18.81 0 37.62 0 57 C-5.61 57 -11.22 57 -17 57 C-17.1237655 49.98916031 -17.21442045 42.97895904 -17.2746582 35.96728516 C-17.29977409 33.58305786 -17.33387324 31.19890735 -17.37719727 28.81494141 C-17.43797447 25.38424721 -17.46623993 21.95457256 -17.48828125 18.5234375 C-17.51408768 17.46071625 -17.5398941 16.397995 -17.56648254 15.30307007 C-17.56960681 7.02542127 -17.56960681 7.02542127 -14.59448242 3.34228516 C-9.24300949 -1.48899661 -9.19134831 0 0 0 Z " fill="#05994D" transform="translate(535,402)"/>
<path d="M0 0 C4.04350744 1.76496568 7.11668178 3.97866331 10 7.3125 C11.86592721 12.32717937 11.62475356 16.37564075 9.75 21.25 C7.29061775 25.11474354 5.39676672 27.53441109 1 29 C-3.26494847 29.58904009 -7.27124317 29.94009039 -11.140625 27.8359375 C-14.54601078 25.0458105 -17.05711596 22.40012554 -18 18 C-18.45122245 13.2621643 -18.50652977 11.01305955 -16.375 6.75 C-11.77239266 1.42066518 -7.19374967 -1.55976628 0 0 Z " fill="#F9FAF9" transform="translate(109,416)"/>
<path d="M0 0 C3.35535655 2.23690437 6.06476329 4.2091963 7.8125 7.875 C8.83659263 13.35059202 8.73398522 18.22951883 5.5625 22.9375 C2.97544307 26.20326014 0.35649657 27.65342949 -3.7734375 28.24609375 C-12.23272412 28.44750534 -12.23272412 28.44750534 -15.75 25.625 C-20.30119059 20.49032344 -20.68145309 16.56088751 -20.57421875 9.796875 C-19.98334641 5.33250624 -18.56654235 3.79326385 -15.1875 0.875 C-10.72449345 -2.51072911 -4.98054576 -1.75783968 0 0 Z " fill="#F8FCFA" transform="translate(351.1875,417.125)"/>
<path d="M0 0 C3.5677811 2.35149209 5.84221079 4.99692157 7.75 8.8125 C8.20348117 15.61471749 7.34908545 19.80730745 2.75 25.125 C-1.0085366 28.29626526 -5.02652648 28.20236112 -9.73828125 28.16796875 C-13.84204039 27.58718791 -15.45850574 25.81335633 -18.25 22.8125 C-21.36867533 18.13448701 -20.83676923 13.28901278 -20.25 7.8125 C-16.10852627 -0.93061121 -8.84831692 -3.23303888 0 0 Z " fill="#F8FCFA" transform="translate(421.25,417.1875)"/>
<path d="M0 0 C4.01770924 1.9709517 6.52452222 4.28678334 9 8 C9.68923878 13.55398223 9.7242151 18.47110145 7.3125 23.5625 C3.20589504 27.89108361 0.46158088 29.19591936 -5.5 29.5 C-9.54286504 29.39117456 -10.70223572 29.21876559 -14.0625 26.75 C-18.37480417 20.62931021 -18.98621763 15.45142206 -18 8 C-14.48896445 0.67018873 -7.51280802 -1.2647825 0 0 Z " fill="#F9FCFB" transform="translate(486,416)"/>
<path d="M0 0 C13.04234528 -0.42996743 13.04234528 -0.42996743 18.875 4.625 C20.67939414 8.43427651 20.09501562 12.00209061 19 16 C16.75410675 18.99452434 15.55130633 19.81623122 12 21 C7.99616868 21.13399703 4.0072645 21.04308887 0 21 C0 14.07 0 7.14 0 0 Z " fill="#F8FCFA" transform="translate(274,400)"/>
<path d="M0 0 C4.56589388 0.51689365 6.30570478 1.9386626 9.3125 5.375 C10.12394575 8.22944748 10.06858333 10.51227226 9.3125 13.375 C7.31897547 16.36528679 5.90994505 17.95309415 2.375 18.88671875 C0.13138086 19.07793629 -1.51943733 18.99132427 -3.6875 18.375 C-6.97576203 15.49777073 -8.43681432 13.60335983 -9.3125 9.3125 C-8.48380875 5.41765113 -6.66803881 3.91936239 -3.6875 1.375 C-2.6875 0.375 -2.6875 0.375 0 0 Z " fill="#3E6756" transform="translate(525.6875,379.625)"/>
<path d="M0 0 C3.625 0.375 3.625 0.375 6.0625 2.0625 C7.92908821 4.82505055 8.21149994 6.10735745 7.625 9.375 C6.5 11.1875 6.5 11.1875 4.625 12.375 C1.6875 12.875 1.6875 12.875 -1.375 12.375 C-4.07640941 9.88685975 -5.23995195 8.34284439 -5.75 4.6875 C-5.11675984 0.782519 -3.82355455 0.42483939 0 0 Z " fill="#446B5B" transform="translate(392.375,220.625)"/>
<path d="M0 0 C0.66 0.33 1.32 0.66 2 1 C-1.3 4.3 -4.6 7.6 -8 11 C-8 7.0234755 -6.61988497 5.9109833 -4 3 C-1.75 1.1875 -1.75 1.1875 0 0 Z " fill="#2CA868" transform="translate(326,404)"/>
<path d="M0 0 C0.66 0.33 1.32 0.66 2 1 C-0.64 3.64 -3.28 6.28 -6 9 C-6 6 -6 6 -3.5625 3.375 C-2.716875 2.59125 -1.87125 1.8075 -1 1 C-0.67 0.67 -0.34 0.34 0 0 Z " fill="#527767" transform="translate(151,403)"/>
<path d="M0 0 C2.89932357 2.39509338 3.50168276 4.31245243 4 8 C-0.875 3.25 -0.875 3.25 -2 1 C-1.34 0.67 -0.68 0.34 0 0 Z " fill="#50B782" transform="translate(361,196)"/>
</svg>
