<?xml version="1.0" encoding="UTF-8"?>
<svg version="1.1" xmlns="http://www.w3.org/2000/svg" width="600" height="600">
<path d="M0 0 C198 0 396 0 600 0 C600 198 600 396 600 600 C402 600 204 600 0 600 C0 402 0 204 0 0 Z " fill="#FEFEFE" transform="translate(0,0)"/>
<path d="M0 0 C0.65470276 -0.00423477 1.30940552 -0.00846954 1.98394775 -0.01283264 C4.0857192 -0.02264921 6.18727236 -0.02276634 8.2890625 -0.01953125 C9.36519806 -0.01862488 9.36519806 -0.01862488 10.46307373 -0.0177002 C26.30376543 0.01861846 40.72973055 1.22574507 55.9140625 6.16796875 C57.33825882 6.60638864 58.76275279 7.04384243 60.1875 7.48046875 C82.75983669 14.53815301 102.28849749 25.41694588 119.9140625 41.16796875 C121.3303745 42.37671778 122.74699083 43.58511041 124.1640625 44.79296875 C125.42054963 45.91071876 126.67052397 47.03583054 127.9140625 48.16796875 C128.5946875 48.78285156 129.2753125 49.39773437 129.9765625 50.03125 C145.8129723 65.04756 158.64458046 85.66067505 165.9140625 106.16796875 C166.31753906 107.21597656 166.72101563 108.26398438 167.13671875 109.34375 C180.48050761 146.0289677 180.67952088 191.80783908 164.54296875 227.82421875 C142.42719928 273.22253689 109.71272119 306.03363208 61.39599609 322.81420898 C53.63776045 325.39361856 46.00332731 326.98983993 37.9140625 328.16796875 C36.16802734 328.47347656 36.16802734 328.47347656 34.38671875 328.78515625 C-8.92146429 335.53328296 -51.90324009 324.23637667 -87.28540039 298.66894531 C-93.99954496 293.63926811 -100.18176866 288.12101316 -106.0859375 282.16796875 C-106.56224609 281.6889209 -107.03855469 281.20987305 -107.52929688 280.71630859 C-140.07603595 247.55230377 -154.3984375 204.25529796 -154.3984375 158.3996582 C-153.92315983 115.65437277 -134.02473792 75.96300542 -104.0859375 46.16796875 C-103.18359375 45.265625 -102.28125 44.36328125 -101.3515625 43.43359375 C-75.18546405 18.53615462 -36.5667601 0.22912739 0 0 Z " fill="#159ED9" transform="translate(289.0859375,76.83203125)"/>
<path d="M0 0 C53.79 0 107.58 0 163 0 C163 11.22 163 22.44 163 34 C109.21 34 55.42 34 0 34 C0 22.78 0 11.56 0 0 Z " fill="#FEFEFE" transform="translate(219,163)"/>
<path d="M0 0 C0.98935547 0.00563965 1.97871094 0.0112793 2.99804688 0.01708984 C3.75150391 0.02434082 4.50496094 0.0315918 5.28125 0.0390625 C5.32766651 12.53083945 5.36316653 25.02259575 5.38487434 37.51444149 C5.39529494 43.31540417 5.40942268 49.11630769 5.43212891 54.91723633 C5.45391871 60.51933432 5.46583159 66.12137553 5.47100449 71.72351265 C5.47468923 73.85684668 5.48188454 75.99017773 5.49271011 78.12348747 C5.50730653 81.12007143 5.50922453 84.11642311 5.50830078 87.11303711 C5.51549133 87.98770126 5.52268188 88.86236542 5.53009033 89.76353455 C5.51127128 95.43489264 4.72162543 100.55978505 3.28125 106.0390625 C2.971875 107.26367188 2.6625 108.48828125 2.34375 109.75 C-0.91315073 120.98151795 -5.99566113 130.86912525 -11.71875 141.0390625 C-13.03875 141.0390625 -14.35875 141.0390625 -15.71875 141.0390625 C-21.62883528 131.43892398 -26.37629822 121.84297839 -29.71875 111.0390625 C-29.97091782 110.25614334 -30.22308563 109.47322418 -30.4828949 108.6665802 C-33.2001362 99.21777504 -33.26433784 89.99551663 -33.328125 80.24609375 C-33.3408482 78.92244592 -33.3408482 78.92244592 -33.35382843 77.57205772 C-33.39847881 72.91267683 -33.42638092 68.25356734 -33.43945312 63.59399414 C-33.45597221 58.80519205 -33.52827034 54.01892124 -33.61336899 49.23091602 C-33.66940135 45.52207702 -33.68487174 41.81384638 -33.68946075 38.10461998 C-33.69849024 36.33957589 -33.72240743 34.57453825 -33.7620163 32.80991554 C-34.04783452 19.11274217 -34.04783452 19.11274217 -30.75540161 13.9757843 C-28.52208187 11.70019696 -26.34419142 9.83869102 -23.71875 8.0390625 C-22.71585937 7.33910156 -21.71296875 6.63914063 -20.6796875 5.91796875 C-13.68884523 2.35918651 -7.94988348 -0.05880091 0 0 Z " fill="#FDFEFE" transform="translate(312.71875,213.9609375)"/>
<path d="M0 0 C4.62 0 9.24 0 14 0 C14 8.58 14 17.16 14 26 C16.31 24.35 18.62 22.7 21 21 C27.42225597 18.85924801 34.01184092 19.15558546 40.1875 21.9375 C46.86617682 25.6762808 52.79136781 31.54186521 55 39 C55.93114587 48.67411554 56.22648196 57.98378047 50 66 C45.12300128 71.35653625 39.77646577 75.42625036 32.3984375 76.3125 C25.79532882 76.60354611 21.62235812 75.43588552 16 72 C15.67 71.67 15.34 71.34 15 71 C14.67 71.99 14.34 72.98 14 74 C9.38 74 4.76 74 0 74 C0 49.58 0 25.16 0 0 Z " fill="#080B0B" transform="translate(309,447)"/>
<path d="M0 0 C3.49324859 1.67832055 6.67794508 3.71013652 9.66015625 6.1953125 C11.71429904 5.23130689 13.56013847 4.27032583 15.37890625 2.90625 C20.38451059 -0.84795326 24.55580148 -1.51575864 30.76171875 -1.21875 C37.70880967 -0.22630844 41.96642853 2.95298541 46.43359375 8.21875 C49.79853839 13.64124041 49.93499157 18.92890804 49.85546875 25.09375 C49.85263885 25.92871002 49.84980896 26.76367004 49.84689331 27.62393188 C49.83575926 30.27287541 49.81066752 32.92147234 49.78515625 35.5703125 C49.77511768 37.37369301 49.76599337 39.17707886 49.7578125 40.98046875 C49.73584215 45.38554883 49.70135946 49.79037203 49.66015625 54.1953125 C44.71015625 54.1953125 39.76015625 54.1953125 34.66015625 54.1953125 C34.64597656 51.72675781 34.63179688 49.25820313 34.6171875 46.71484375 C34.58654397 44.31521066 34.54746159 41.91585247 34.50756836 39.51635742 C34.48441959 37.85304538 34.46999994 36.1895874 34.46459961 34.52612305 C34.45528645 32.12977499 34.41425074 29.73571191 34.3671875 27.33984375 C34.37112015 26.6000679 34.3750528 25.86029205 34.37910461 25.09809875 C34.26745713 21.11745527 33.79461599 19.36145646 31.25854492 16.2277832 C28.57631562 14.129732 27.50138204 13.5114881 24.16015625 13.5703125 C23.061875 13.55097656 23.061875 13.55097656 21.94140625 13.53125 C18.41909362 14.55658073 16.95218584 16.36318688 14.66015625 19.1953125 C14.15329165 22.10119859 13.93770233 24.43866376 13.953125 27.33984375 C13.93800369 28.10963058 13.92288239 28.87941742 13.90730286 29.67253113 C13.86450362 32.11792468 13.85559615 34.5620821 13.84765625 37.0078125 C13.82450564 38.67125664 13.79913912 40.33467152 13.77148438 41.99804688 C13.7045557 46.06447088 13.68352242 50.12747474 13.66015625 54.1953125 C8.71015625 54.1953125 3.76015625 54.1953125 -1.33984375 54.1953125 C-1.35402344 51.72675781 -1.36820313 49.25820313 -1.3828125 46.71484375 C-1.41345603 44.31521066 -1.45253841 41.91585247 -1.49243164 39.51635742 C-1.51558041 37.85304538 -1.53000006 36.1895874 -1.53540039 34.52612305 C-1.54471355 32.12977499 -1.58574926 29.73571191 -1.6328125 27.33984375 C-1.62887985 26.6000679 -1.6249472 25.86029205 -1.62089539 25.09809875 C-1.73252979 21.11792147 -2.20453671 19.36237962 -4.74145508 16.22998047 C-7.40827982 14.14172364 -8.51261708 13.49023912 -11.83984375 13.5078125 C-12.57203125 13.48332031 -13.30421875 13.45882813 -14.05859375 13.43359375 C-17.56212498 14.60343723 -19.48672261 17.11941008 -21.33984375 20.1953125 C-21.83785294 22.99751307 -22.0627614 25.20915993 -22.046875 28 C-22.06199631 28.7239798 -22.07711761 29.44795959 -22.09269714 30.19387817 C-22.13538419 32.48634445 -22.1443926 34.77748936 -22.15234375 37.0703125 C-22.17550321 38.63284716 -22.20087157 40.19535074 -22.22851562 41.7578125 C-22.29117879 45.5704283 -22.32366241 49.38222761 -22.33984375 53.1953125 C-26.95984375 53.1953125 -31.57984375 53.1953125 -36.33984375 53.1953125 C-36.33984375 36.0353125 -36.33984375 18.8753125 -36.33984375 1.1953125 C-31.71984375 1.1953125 -27.09984375 1.1953125 -22.33984375 1.1953125 C-22.00984375 2.1853125 -21.67984375 3.1753125 -21.33984375 4.1953125 C-20.88996094 3.834375 -20.44007813 3.4734375 -19.9765625 3.1015625 C-13.71786678 -1.413729 -7.41893917 -2.55142148 0 0 Z " fill="#0A0D0D" transform="translate(251.33984375,467.8046875)"/>
<path d="M0 0 C4.95 0 9.9 0 15 0 C15.33 8.25 15.66 16.5 16 25 C18.64 23.35 21.28 21.7 24 20 C29.95630834 18.71106768 35.85924766 19.5494435 41.14453125 22.58984375 C45.45695982 25.86728946 49.27575867 29.827276 51 35 C51.08544291 36.33528807 51.11774625 37.67443888 51.11352539 39.01245117 C51.11344986 39.81305466 51.11337433 40.61365814 51.11329651 41.43852234 C51.10813522 42.29798965 51.10297394 43.15745697 51.09765625 44.04296875 C51.0962413 44.9265657 51.09482635 45.81016266 51.09336853 46.72053528 C51.08777069 49.54289128 51.07521861 52.36516797 51.0625 55.1875 C51.05748472 57.10091031 51.05292186 59.01432187 51.04882812 60.92773438 C51.03780197 65.61852014 51.02053883 70.30924663 51 75 C46.05 75 41.1 75 36 75 C35.98582031 72.53144531 35.97164062 70.06289063 35.95703125 67.51953125 C35.92638772 65.11989816 35.88730534 62.72053997 35.84741211 60.32104492 C35.82426334 58.65773288 35.80984369 56.9942749 35.80444336 55.33081055 C35.7951302 52.93446249 35.75409449 50.54039941 35.70703125 48.14453125 C35.7109639 47.4047554 35.71489655 46.66497955 35.71894836 45.90278625 C35.60730088 41.92214277 35.13445974 40.16614396 32.59838867 37.0324707 C29.91615937 34.9344195 28.84122579 34.3161756 25.5 34.375 C24.7678125 34.36210937 24.035625 34.34921875 23.28125 34.3359375 C19.75893737 35.36126823 18.29202959 37.16787438 16 40 C15.4931354 42.90588609 15.27754608 45.24335126 15.29296875 48.14453125 C15.27784744 48.91431808 15.26272614 49.68410492 15.24714661 50.47721863 C15.20434737 52.92261218 15.1954399 55.3667696 15.1875 57.8125 C15.16434939 59.47594414 15.13898287 61.13935902 15.11132812 62.80273438 C15.04439945 66.86915838 15.02336617 70.93216224 15 75 C10.05 75 5.1 75 0 75 C0 50.25 0 25.5 0 0 Z " fill="#0E1111" transform="translate(97,447)"/>
<path d="M0 0 C1.051875 0.5775 2.10375 1.155 3.1875 1.75 C7.0588721 4.84709768 9.57326648 8.28060717 10.34655762 13.20846558 C10.4605681 15.69964641 10.4504244 18.15930657 10.390625 20.65234375 C10.38496521 21.55247696 10.37930542 22.45261017 10.37347412 23.38002014 C10.3512223 26.23307231 10.30104799 29.08483244 10.25 31.9375 C10.22992048 33.88084114 10.21167226 35.82420211 10.1953125 37.76757812 C10.15139435 42.51221068 10.08244565 47.25588687 10 52 C5.38 52 0.76 52 -4 52 C-4.495 50.02 -4.495 50.02 -5 48 C-5.92619141 48.54140625 -5.92619141 48.54140625 -6.87109375 49.09375 C-14.32529965 53.17824638 -19.96340797 54.37203413 -28.1875 52 C-32.89504235 50.04166238 -35.49012762 46.30760104 -38 42 C-39.68586258 36.94241225 -39.55571441 33.28925744 -37.4375 28.375 C-34.16528579 23.28361775 -29.78919434 20.24011547 -23.9375 18.75 C-17.69750837 17.60166821 -11.32564137 17.34192656 -5 17 C-6.86566488 13.37206002 -6.86566488 13.37206002 -10 11 C-17.67024071 10.37776518 -23.8727932 11.14911728 -31 14 C-32.65 10.7 -34.3 7.4 -36 4 C-25.38135681 -3.07909546 -11.7939878 -6.87982622 0 0 Z " fill="#0C0E0E" transform="translate(447,470)"/>
<path d="M0 0 C4.62 0 9.24 0 14 0 C14 13.2 14 26.4 14 40 C14.66 40 15.32 40 16 40 C16.27513428 39.4112207 16.55026855 38.82244141 16.83374023 38.21582031 C20.1624836 31.89141697 25.90875734 25.71542252 32 22 C37.62402529 20.43704826 43.30623522 21.13145961 49 22 C43.52509066 28.510703 37.76776422 34.74987827 32 41 C35.74729138 48.15817312 40.13551253 54.75112108 44.75 61.375 C46.10223229 63.31803812 47.45134622 65.26325128 48.796875 67.2109375 C49.38823242 68.05962402 49.97958984 68.90831055 50.58886719 69.78271484 C52 72 52 72 53 75 C46.73 75 40.46 75 34 75 C33.01 72.9271875 33.01 72.9271875 32 70.8125 C28.74763573 64.27965303 24.89416982 58.16496364 21 52 C16.70713326 54.70857385 16.70713326 54.70857385 14.41113281 59.00634766 C14.18715361 61.29022613 14.1173063 63.51785456 14.125 65.8125 C14.104375 66.60076172 14.08375 67.38902344 14.0625 68.20117188 C14.01565183 70.13365908 14.00426251 72.06694972 14 74 C9.38 74 4.76 74 0 74 C0 49.58 0 25.16 0 0 Z " fill="#080B0B" transform="translate(517,447)"/>
<path d="M0 0 C4.95 0 9.9 0 15 0 C15.03738281 2.32417969 15.07476562 4.64835937 15.11328125 7.04296875 C15.1595442 9.30356041 15.21076028 11.5639896 15.26245117 13.82446289 C15.29562532 15.39076801 15.32368058 16.95719051 15.34643555 18.52368164 C15.38012116 20.78061763 15.43244049 23.03648526 15.48828125 25.29296875 C15.49467117 25.98899704 15.5010611 26.68502533 15.50764465 27.40214539 C15.63766808 31.73955629 16.35102356 34.53988871 19 38 C22.72549726 39.86274863 27.29250618 39.13480214 31.375 38.8125 C33.20796136 38.09484579 33.20796136 38.09484579 34.07568359 35.9309082 C35.20058294 32.36397302 35.352585 28.99734994 35.4140625 25.29296875 C35.43342865 24.56757401 35.4527948 23.84217926 35.4727478 23.09480286 C35.53222108 20.79248578 35.57879845 18.49011781 35.625 16.1875 C35.66320958 14.62042168 35.70226303 13.05336369 35.7421875 11.48632812 C35.83947495 7.65766175 35.91929594 3.8291951 36 0 C40.95 0 45.9 0 51 0 C51 17.49 51 34.98 51 53 C46.05 53 41.1 53 36 53 C35.505 51.02 35.505 51.02 35 49 C34.13375 49.680625 34.13375 49.680625 33.25 50.375 C27.63026755 54.43369566 22.82958883 54.75674114 16 54 C10.11528132 52.25637965 6.47817449 49.06819711 3 44 C0.1882727 38.52627231 -0.41519762 34.32626901 -0.29296875 28.22265625 C-0.28872391 27.41130722 -0.28447906 26.59995819 -0.28010559 25.76402283 C-0.26343867 23.19649744 -0.22581048 20.62978436 -0.1875 18.0625 C-0.1724376 16.31186037 -0.15875193 14.56120832 -0.14648438 12.81054688 C-0.11357468 8.54005608 -0.06187726 4.27016531 0 0 Z " fill="#0C0F0F" transform="translate(155,469)"/>
<path d="M0 0 C2.80555772 1.84687468 5.43140145 3.83733801 8 6 C6.65396518 10.03810445 4.34663277 11.47295076 1 14 C0.34 14 -0.32 14 -1 14 C-1 14.66 -1 15.32 -1 16 C-3.49361571 14.79618552 -5.68143083 13.54571278 -8 12 C-11.71770436 11.45327877 -15.28299158 11.44570927 -19 12 C-22.15222575 14.22990529 -22.15222575 14.22990529 -24 17 C-24.33 17.33 -24.66 17.66 -25 18 C-25.91144564 26.72863864 -25.91144564 26.72863864 -23.125 34.75 C-20.78263958 37.23014633 -19.9279869 37.90884509 -16.57421875 38.23828125 C-10.37379989 38.46767944 -10.37379989 38.46767944 -4.8125 36 C-4.214375 35.34 -3.61625 34.68 -3 34 C-0.00779732 35.36370299 2.29026529 36.94908083 4.75 39.125 C5.36359375 39.66382813 5.9771875 40.20265625 6.609375 40.7578125 C7.06828125 41.16773438 7.5271875 41.57765625 8 42 C6.5304003 45.80609809 4.61508531 47.1731926 1.125 49.1875 C0.26132812 49.69667969 -0.60234375 50.20585938 -1.4921875 50.73046875 C-8.20530927 54.12885594 -16.67474194 54.27846025 -23.828125 52.1640625 C-31.69943025 48.56644139 -36.86646996 43.02634643 -40.4375 35.1875 C-42.92130616 28.17693022 -43.20232371 21.27841947 -40.4375 14.3125 C-36.58811392 6.81491527 -31.4834524 1.32614272 -23.7421875 -2.15625 C-15.89674238 -4.57023311 -7.30767591 -3.68760725 0 0 Z " fill="#0C0F0F" transform="translate(504,470)"/>
<path d="M0 0 C4.62 0 9.24 0 14 0 C14 5.28 14 10.56 14 16 C19.28 16 24.56 16 30 16 C30 19.96 30 23.92 30 28 C24.72 28 19.44 28 14 28 C14.11383747 31.75064517 14.2405944 35.50008375 14.375 39.25 C14.4059375 40.31347656 14.436875 41.37695312 14.46875 42.47265625 C14.50742187 43.49746094 14.54609375 44.52226562 14.5859375 45.578125 C14.63306885 46.99206543 14.63306885 46.99206543 14.68115234 48.43457031 C14.89924316 51.35429097 14.89924316 51.35429097 17 55 C20.3 55 23.6 55 27 55 C31.125 63.625 31.125 63.625 30 67 C23.79602258 70.10198871 17.89349578 70.95009896 11 70 C6.54853749 67.81473658 3.81114855 65.0605479 1 61 C-0.15927528 57.52217417 -0.11313066 54.81196743 -0.09765625 51.14453125 C-0.0962413 50.48289474 -0.09482635 49.82125824 -0.09336853 49.13957214 C-0.08777996 47.03050172 -0.07522965 44.92153823 -0.0625 42.8125 C-0.05748352 41.38086091 -0.05292087 39.94922015 -0.04882812 38.51757812 C-0.0378143 35.01168412 -0.02055755 31.5058525 0 28 C-2.64 28 -5.28 28 -8 28 C-8 24.04 -8 20.08 -8 16 C-5.36 16 -2.72 16 0 16 C0 10.72 0 5.44 0 0 Z " fill="#070A0A" transform="translate(374,453)"/>
<path d="M0 0 C20.79 0 41.58 0 63 0 C63 4.95 63 9.9 63 15 C42.21 15 21.42 15 0 15 C0 10.05 0 5.1 0 0 Z " fill="#121515" transform="translate(30,447)"/>
<path d="M0 0 C0.12497436 5.45849555 0.21497739 10.91613182 0.2746582 16.37573242 C0.29957482 18.22711725 0.33352129 20.07840608 0.37719727 21.92944336 C0.63130967 32.98781713 0.85973078 43.17208241 -5 53 C-5.99 53.66 -6.98 54.32 -8 55 C-8.79690649 53.77422398 -9.58726484 52.54418995 -10.375 51.3125 C-11.03628906 50.28576172 -11.03628906 50.28576172 -11.7109375 49.23828125 C-14.65636283 44.12395181 -15.35009533 39.6658815 -15.44140625 33.8125 C-15.46206398 32.64231323 -15.46206398 32.64231323 -15.48313904 31.44848633 C-15.50633512 29.80459609 -15.52363904 28.16061338 -15.53540039 26.51660156 C-15.56242754 24.00672872 -15.63740966 21.50100746 -15.71289062 18.9921875 C-15.72954157 17.3906532 -15.7433102 15.7890858 -15.75390625 14.1875 C-15.78376114 13.44153564 -15.81361603 12.69557129 -15.84437561 11.92700195 C-15.81914595 8.9291097 -15.61684695 6.6650243 -13.53121948 4.41650391 C-9.06697792 1.0818285 -5.59162744 0 0 0 Z " fill="#080B0B" transform="translate(69,467)"/>
<path d="M0 0 C3.64895138 1.30269665 6.31329585 3.24684061 8.9375 6.125 C10.54431256 10.47284576 10.76889761 14.4293309 10 19 C7.98907638 23.35700117 5.5048494 26.22611242 1 28 C-3.05254261 28.63529958 -7.1662824 28.90563196 -10.9140625 27.0546875 C-14.16014876 24.51218644 -16.09322823 21.98979578 -17 18 C-17.56831638 13.2137105 -17.49988397 9.96406195 -15.25 5.625 C-10.55520397 0.14773797 -7.19109493 -1.09139721 0 0 Z " fill="#F8F8F8" transform="translate(340,481)"/>
<path d="M0 0 C-0.38192295 5.63336356 -0.77822843 8.90239818 -5 13 C-7.76047543 13.92015848 -9.63362269 14.19267245 -12.5 14.25 C-13.66015625 14.28867187 -13.66015625 14.28867187 -14.84375 14.328125 C-17.54197481 13.91752557 -18.38816292 13.16939079 -20 11 C-20.3790979 7.96721679 -20.5384479 5.94228383 -19 3.25 C-13.21957622 -0.36276486 -6.58211032 -0.2742546 0 0 Z " fill="#F2F2F2" transform="translate(443,497)"/>
</svg>
